<svg version="1.1" id="Layer_1" xmlns="http://www.w3.org/2000/svg" xmlns:xlink="http://www.w3.org/1999/xlink" x="0px" y="0px"
	 width="100%" viewBox="0 0 1280 853" enable-background="new 0 0 1280 853" xml:space="preserve">
<path fill="#FFFFFF" opacity="1.000000" stroke="none" 
	d="
M808.000000,854.000000 
	C538.698120,854.000000 269.896240,854.000000 1.047182,854.000000 
	C1.047182,569.731384 1.047182,285.462769 1.047182,1.097084 
	C427.551971,1.097084 854.104004,1.097084 1280.828003,1.097084 
	C1280.828003,285.333252 1280.828003,569.666626 1280.828003,854.000000 
	C1123.462524,854.000000 965.981262,854.000000 808.000000,854.000000 
M395.998077,429.034119 
	C395.998077,429.034119 395.864624,429.095306 395.858002,429.723907 
	C396.184784,430.237305 396.511536,430.750671 397.016388,431.954376 
	C397.269104,432.353516 397.521820,432.752655 397.598236,433.396271 
	C397.598236,433.396271 397.768433,433.645294 397.768433,433.645294 
	C397.768433,433.645294 398.070709,433.632477 398.070251,433.829895 
	C398.070251,433.829895 398.239746,433.931122 398.163971,434.598907 
	C399.061707,436.087128 399.959412,437.575348 400.960144,439.713806 
	C401.870514,441.131958 402.780853,442.550110 403.728210,444.614685 
	C404.102448,445.118835 404.476685,445.622986 405.001434,446.673981 
	C405.278839,446.924194 405.556244,447.174408 405.805603,448.101257 
	C406.894348,449.741211 407.983093,451.381195 409.077789,453.574188 
	C409.363708,453.795319 409.649597,454.016449 410.082458,454.786011 
	C410.219513,454.916534 410.356537,455.047089 410.516541,455.478729 
	C410.598206,455.713348 410.760162,455.801453 411.017212,455.994171 
	C411.017212,455.994171 411.268463,456.007477 411.166046,456.713623 
	C413.064117,459.520355 414.962189,462.327118 416.833893,465.163849 
	C416.833893,465.163849 416.810547,465.197144 416.913116,465.889404 
	C419.266449,468.934937 421.619812,471.980469 423.949646,475.567383 
	C424.211975,475.800079 424.474335,476.032745 424.877991,476.941376 
	C430.962036,484.400696 436.601257,492.282043 443.208252,499.245178 
	C469.777954,527.247192 500.629883,548.796875 537.308655,561.855774 
	C561.585327,570.499023 586.582458,575.026245 612.045593,577.673035 
	C615.700256,578.052979 619.393433,578.062744 623.856140,578.282593 
	C622.418335,575.247620 621.439209,573.180664 620.410889,570.393799 
	C608.427551,539.621338 597.554321,508.325287 581.130859,479.532166 
	C575.012207,468.805145 566.954407,459.184265 559.728943,448.461426 
	C559.160156,447.968201 558.591370,447.474945 558.000000,447.000000 
	C558.000000,447.000000 558.018372,446.980774 557.883240,446.468536 
	C557.610779,446.255280 557.338257,446.042023 556.926208,445.405884 
	C556.754456,445.139435 556.512207,444.980194 555.976013,444.407440 
	C555.684265,444.174866 555.392517,443.942291 554.918762,443.210114 
	C554.581604,442.801361 554.244446,442.392578 553.806152,441.516113 
	C553.598328,441.241791 553.322327,441.099365 552.988953,441.017303 
	C552.988953,441.017303 552.918396,441.033539 552.816895,440.439087 
	C552.215942,439.967468 551.614990,439.495850 551.012451,438.989624 
	C551.012451,438.989624 550.978027,438.985626 550.882019,438.378265 
	C549.897522,437.451752 548.913025,436.525208 547.562073,435.189362 
	C547.394104,435.116302 547.226135,435.043274 546.878052,434.342010 
	C545.592407,433.214417 544.306763,432.086853 542.804932,430.419983 
	C542.213867,429.941437 541.622803,429.462891 540.873901,428.330017 
	C530.065125,419.689972 519.643250,410.495636 508.320374,402.592163 
	C499.857086,396.684692 490.231354,392.442688 480.787231,386.910492 
	C445.459747,369.399139 407.954559,360.299927 367.573303,356.844543 
	C371.278870,367.117676 374.519989,376.103149 377.801514,385.898621 
	C379.571533,391.059204 381.038788,396.349365 383.179230,401.351440 
	C386.809753,409.835754 390.864960,418.138306 394.678375,426.776306 
	C394.678375,426.776306 394.841949,426.986908 394.833252,427.619263 
	C395.176758,428.107391 395.520264,428.595490 395.998077,429.034119 
M809.637329,525.826050 
	C809.855164,525.238953 810.072937,524.651917 810.927734,523.817810 
	C812.997681,522.272644 815.067627,520.727417 817.845886,519.083191 
	C818.946106,518.110352 820.046387,517.137512 821.159363,516.057068 
	C821.159363,516.057068 821.194519,516.159607 821.854065,516.136536 
	C822.938416,515.126831 824.022766,514.117065 825.732788,512.879639 
	C828.197937,510.297089 830.663025,507.714569 833.759705,504.917053 
	C836.287170,502.041382 838.814636,499.165710 841.927368,495.986542 
	C844.929443,492.693359 848.227600,489.619720 850.867859,486.058350 
	C855.459473,479.864838 859.644897,473.370148 864.616089,466.775208 
	C865.350098,465.884247 866.175659,465.053345 866.804504,464.093536 
	C879.569946,444.607880 890.177979,424.003296 898.300232,402.173859 
	C901.109924,394.622284 903.176025,386.794037 905.942749,378.575836 
	C905.956848,378.366333 905.970886,378.156799 906.444031,377.423645 
	C908.653564,370.936066 910.863098,364.448517 913.307861,357.270264 
	C910.848877,357.270264 909.378113,357.099426 907.958923,357.297852 
	C898.623108,358.603241 889.239563,359.680695 879.990112,361.451416 
	C873.419800,362.709229 867.035217,364.937042 860.038818,366.712555 
	C859.694153,366.803986 859.349487,366.895416 858.463501,366.657196 
	C854.690918,367.794281 850.918396,368.931366 847.057922,370.015259 
	C847.057922,370.015259 847.013367,370.107788 846.430664,370.133392 
	C846.129883,370.370331 845.829102,370.607269 845.008423,370.752228 
	C844.672241,370.846741 844.336121,370.941254 843.220093,371.023895 
	C840.974365,371.948761 838.728638,372.873627 835.982605,373.710785 
	C835.659729,373.803955 835.336914,373.897125 834.850464,373.768311 
	C834.850464,373.768311 834.471558,373.760681 834.471558,373.760681 
	C834.471558,373.760681 834.303040,374.092163 833.522766,374.136383 
	C827.035400,376.578674 820.377869,378.652954 814.102661,381.554077 
	C805.784607,385.399689 797.765259,389.891510 789.012207,394.336304 
	C788.667297,394.594208 788.322388,394.852081 787.336792,395.108215 
	C786.563965,395.740051 785.791077,396.371857 784.172302,397.084869 
	C783.681396,397.360687 783.190552,397.636505 782.676636,397.699615 
	C782.676636,397.699615 782.630554,397.987854 781.641724,398.415009 
	C781.326355,398.586639 781.011047,398.758270 780.768799,398.842133 
	C780.768799,398.842133 780.791626,398.857849 780.171265,399.337189 
	C761.968628,409.727173 745.939575,422.943756 731.902710,438.351929 
	C724.142822,446.869904 717.830322,456.706451 710.686707,466.208313 
	C710.686707,466.208313 710.721863,466.521545 710.228699,466.824066 
	C710.063416,467.164154 709.898132,467.504242 709.327515,468.154846 
	C709.121277,468.614777 708.914978,469.074707 708.242920,469.855865 
	C708.099060,470.197357 707.955200,470.538849 707.361572,471.154266 
	C707.158020,471.625305 706.954529,472.096375 706.211914,472.872894 
	C705.822510,473.567871 705.433105,474.262848 704.607422,475.479523 
	C685.270020,507.690094 673.765869,543.285706 658.776245,579.091003 
	C672.874451,577.465393 685.435974,576.468567 697.841309,574.491394 
	C722.761719,570.519592 746.984558,564.096069 769.154175,551.498657 
	C779.932007,545.374390 790.668518,539.174133 801.318054,532.830872 
	C803.189453,531.716187 804.537354,529.722656 806.079651,528.094421 
	C806.079651,528.094421 806.087891,528.152222 806.755310,528.139160 
	C807.527405,527.442871 808.299500,526.746582 809.003357,526.004761 
	C809.003357,526.004761 809.049438,526.072632 809.637329,525.826050 
M703.038879,425.020111 
	C703.038879,425.020111 703.053650,424.980438 703.614197,424.451691 
	C703.791870,421.287292 703.969604,418.122925 704.287048,414.199524 
	C704.401489,412.428070 704.515991,410.656647 704.914062,408.199127 
	C704.868469,407.463745 704.822876,406.728394 704.962708,405.072845 
	C704.920959,396.716003 704.879211,388.359131 704.990173,379.085083 
	C703.290283,365.743805 701.590393,352.402527 699.910339,338.242920 
	C699.393188,335.300079 699.037720,332.317932 698.333923,329.420410 
	C691.017395,299.299896 681.219299,270.027924 667.012695,242.427414 
	C659.522156,227.874710 651.025085,213.841492 643.065430,199.527588 
	C641.551147,196.804428 640.504333,196.442444 638.735779,199.343338 
	C635.718079,204.293304 632.139404,208.919205 629.345459,213.984161 
	C622.070801,227.172104 614.537659,240.264328 608.167664,253.890320 
	C602.705383,265.574585 598.710083,277.944611 593.763550,290.631927 
	C593.443115,291.965118 593.122681,293.298309 592.350159,294.947205 
	C592.260193,295.291687 592.170166,295.636169 591.721985,296.639465 
	C590.214233,301.851227 588.331787,306.987854 587.268860,312.288788 
	C584.018433,328.498779 581.083008,344.771942 577.805237,361.849457 
	C577.835205,363.837036 577.865173,365.824615 577.233215,368.221375 
	C576.898071,371.848297 576.562927,375.475250 576.059143,380.011658 
	C576.137085,388.331055 576.215027,396.650452 576.147278,405.884491 
	C576.266418,408.370911 576.117554,410.905121 576.551025,413.335480 
	C578.457153,424.021362 580.531433,434.677307 582.607361,446.026062 
	C582.753113,446.694305 582.898865,447.362518 582.807251,448.517822 
	C583.453491,450.352936 584.099670,452.188019 584.815491,454.552460 
	C584.881165,454.717865 584.946899,454.883270 584.915588,455.667297 
	C585.361450,456.780609 585.807312,457.893921 586.473206,459.808044 
	C587.290955,462.340607 587.996521,464.915985 588.943542,467.399261 
	C600.726318,498.298645 617.388245,526.368286 638.053406,552.129211 
	C638.972473,553.274902 639.164917,555.003357 639.695862,556.460388 
	C641.986145,554.366394 642.453247,554.132996 642.746399,553.762024 
	C656.594727,536.236816 668.999329,517.743530 679.229126,497.880707 
	C682.853943,490.842468 685.543091,483.322235 689.034790,475.346771 
	C691.047058,469.283752 693.059387,463.220764 695.715088,456.803223 
	C697.900085,447.907593 700.085144,439.011963 702.721252,429.522156 
	C702.813110,428.023285 702.904968,426.524384 703.038879,425.020111 
z"/>
<path fill="#30ADB7" opacity="1.000000" stroke="none" 
	d="
M423.973175,475.026001 
	C421.619812,471.980469 419.266449,468.934937 417.211304,465.605347 
	C418.306244,465.500061 419.332062,466.088684 419.863098,465.791931 
	C423.678925,463.659454 427.344879,465.139130 430.951538,466.176300 
	C438.472229,468.339111 445.956360,470.637512 453.407837,473.028778 
	C457.130768,474.223480 461.896179,474.760071 464.130280,477.362579 
	C467.070648,480.787811 470.013733,480.988770 473.689453,481.054504 
	C475.463745,481.086212 477.228210,481.669922 479.034607,482.357666 
	C480.994110,485.082672 482.449890,488.395966 484.936340,489.626251 
	C489.931946,492.097992 494.823456,494.125366 497.041504,499.853302 
	C497.661041,501.453125 499.459869,502.556763 500.503448,504.038910 
	C504.446320,509.638916 513.944458,509.569611 514.944885,518.191040 
	C514.977661,518.473572 515.853760,518.579102 516.172119,518.920532 
	C518.126648,521.016907 519.897217,523.307739 522.008667,525.226013 
	C523.239990,526.344727 525.201477,527.822021 526.472961,527.535156 
	C532.307190,526.219055 536.610840,529.332031 541.289551,531.698120 
	C542.975281,532.550598 545.057983,532.578552 546.887146,533.196838 
	C549.230957,533.989075 552.864929,534.414490 553.551636,536.020569 
	C555.723145,541.098755 560.932251,542.332642 564.392822,545.645874 
	C568.129700,549.223633 573.652771,550.888184 578.218140,553.679260 
	C579.461731,554.439575 580.608887,556.159119 580.852539,557.598816 
	C581.503418,561.445740 583.601135,562.768555 587.311340,563.132202 
	C589.370239,563.334045 592.081543,564.402222 593.111267,565.983459 
	C595.119629,569.067688 597.230652,569.425415 600.248840,568.182617 
	C600.549500,568.058838 601.078125,568.488708 601.630554,568.714661 
	C600.691589,569.815308 599.856323,570.794434 598.728760,572.116150 
	C606.398438,573.749512 613.445374,575.250244 620.566467,576.766785 
	C620.345642,574.412964 620.193665,572.792664 620.147827,571.168823 
	C620.253967,571.165405 620.460022,571.113708 620.460022,571.113708 
	C621.439209,573.180664 622.418335,575.247620 623.856140,578.282593 
	C619.393433,578.062744 615.700256,578.052979 612.045593,577.673035 
	C586.582458,575.026245 561.585327,570.499023 537.308655,561.855774 
	C500.629883,548.796875 469.777954,527.247192 443.208252,499.245178 
	C436.601257,492.282043 430.962036,484.400696 424.881653,476.526306 
	C424.885345,476.111206 425.030151,475.953278 425.337585,475.927734 
	C425.671173,475.110199 425.697357,474.318207 425.723511,473.526215 
	C425.168762,474.005737 424.614044,474.485260 424.037354,474.979492 
	C424.015381,474.994202 423.973175,475.026001 423.973175,475.026001 
M424.025024,467.241821 
	C423.177856,467.396423 422.330688,467.551056 421.483521,467.705688 
	C421.659393,468.170685 421.835266,468.635681 422.011139,469.100647 
	C422.839691,468.628967 423.668274,468.157257 424.025024,467.241821 
z"/>
<path fill="#61D0C7" opacity="1.000000" stroke="none" 
	d="
M594.066040,290.011353 
	C598.710083,277.944611 602.705383,265.574585 608.167664,253.890320 
	C614.537659,240.264328 622.070801,227.172104 629.345459,213.984161 
	C632.139404,208.919205 635.718079,204.293304 638.735779,199.343338 
	C640.504333,196.442444 641.551147,196.804428 643.065430,199.527588 
	C651.025085,213.841492 659.522156,227.874710 667.012695,242.427414 
	C681.219299,270.027924 691.017395,299.299896 698.333923,329.420410 
	C699.037720,332.317932 699.393188,335.300079 699.662476,338.867920 
	C699.122131,340.338287 698.829590,341.183655 698.685547,341.599976 
	C697.892090,338.886414 697.295532,335.882080 696.133423,333.115295 
	C694.672363,329.636963 691.868835,326.516296 691.207397,322.951324 
	C689.829224,315.522888 684.841675,312.266113 679.001404,308.593658 
	C672.949036,304.787872 665.091309,304.637848 660.254333,298.177734 
	C658.037720,295.217224 655.113953,296.877441 654.584656,301.001129 
	C647.780701,300.810364 642.356506,298.792145 640.191711,292.211456 
	C638.947021,288.427765 636.690369,287.818054 633.154541,287.847260 
	C631.119690,287.864075 628.814636,286.711548 627.076965,285.464355 
	C621.046387,281.136017 615.210815,276.535919 609.301086,272.039185 
	C609.093323,272.629028 608.885498,273.218842 608.677734,273.808685 
	C606.354980,274.621277 604.032288,275.433868 601.158630,276.439178 
	C599.956421,279.786194 598.476929,283.904999 596.739014,288.194702 
	C595.675781,288.914154 594.870911,289.462738 594.066040,290.011353 
z"/>
<path fill="#30A7B1" opacity="1.000000" stroke="none" 
	d="
M706.750977,472.567413 
	C706.954529,472.096375 707.158020,471.625305 707.863892,470.899506 
	C708.480408,470.274689 708.594543,469.904663 708.708679,469.534607 
	C708.914978,469.074707 709.121277,468.614777 709.824829,467.899261 
	C710.455383,467.269653 710.588623,466.895599 710.721863,466.521545 
	C710.721863,466.521545 710.686707,466.208313 711.100342,465.944092 
	C714.877014,464.103668 716.009094,458.751892 721.001404,460.380676 
	C705.053406,484.405487 693.232056,509.964172 685.413574,537.410034 
	C692.307922,528.456238 698.458374,519.012756 705.369751,510.163483 
	C714.243835,498.801056 723.729248,487.916016 732.983276,477.153564 
	C732.888855,478.361572 733.030151,479.416565 732.589233,480.090546 
	C730.736511,482.922150 728.707275,485.638062 726.747681,488.399872 
	C725.797363,489.739166 725.083557,491.976135 723.876343,492.282104 
	C717.235168,493.965057 717.910583,501.938202 712.753357,504.824097 
	C712.289551,505.083649 712.251892,507.397766 712.787842,507.856354 
	C713.653259,508.596893 715.229492,508.963837 716.369751,508.753418 
	C717.044434,508.628906 717.656555,507.149414 717.940918,506.175354 
	C718.319214,504.879089 718.351074,503.481659 718.531799,502.127716 
	C719.108276,501.872589 719.684692,501.617462 720.261169,501.362366 
	C722.167908,503.975769 725.162170,506.374237 725.730835,509.252075 
	C726.622925,513.766113 728.798157,516.207092 732.743835,517.901550 
	C734.028625,518.453308 735.580872,519.799622 735.862122,521.042480 
	C737.833740,529.755005 737.736755,529.854980 746.946228,529.956543 
	C750.028625,529.990601 751.802490,530.521851 752.230347,534.231689 
	C752.430176,535.963989 754.945862,538.610596 756.617065,538.776550 
	C762.267700,539.337524 764.090027,543.233521 766.110352,547.958923 
	C767.851562,541.985779 770.650635,547.669189 773.087280,547.169800 
	C773.451355,547.224487 773.725708,547.112244 774.356445,546.965027 
	C776.713501,545.837097 778.714111,544.744202 780.533325,543.750366 
	C780.358337,541.429138 780.217285,539.558044 780.052856,537.376526 
	C787.000793,540.518005 790.646423,539.431885 796.379883,534.206909 
	C799.162476,531.671021 802.849487,530.127686 806.127075,528.135010 
	C804.537354,529.722656 803.189453,531.716187 801.318054,532.830872 
	C790.668518,539.174133 779.932007,545.374390 769.154175,551.498657 
	C746.984558,564.096069 722.761719,570.519592 697.841309,574.491394 
	C685.435974,576.468567 672.874451,577.465393 658.776245,579.091003 
	C673.765869,543.285706 685.270020,507.690094 705.111938,475.086548 
	C705.994629,473.984863 706.372803,473.276154 706.750977,472.567413 
M720.569031,512.296875 
	C720.295959,512.010681 720.022949,511.724518 719.749878,511.438324 
	C719.631470,511.551575 719.403748,511.757050 719.410339,511.764832 
	C719.665161,512.066650 719.941345,512.350464 720.569031,512.296875 
M684.374878,539.470825 
	C684.374878,539.470825 684.545410,539.574890 684.545410,539.574890 
	C684.545410,539.574890 684.523804,539.355530 684.374878,539.470825 
z"/>
<path fill="#49C2C0" opacity="1.000000" stroke="none" 
	d="
M593.914795,290.321655 
	C594.870911,289.462738 595.675781,288.914154 596.877930,288.512512 
	C597.472412,289.280426 598.037292,290.150848 597.810913,290.484253 
	C595.074524,294.515442 597.014038,296.642395 600.664062,298.423706 
	C601.667114,298.913208 602.152222,300.372711 603.033020,301.223572 
	C604.711853,302.845459 606.388672,304.513916 608.285950,305.851471 
	C609.847656,306.952484 611.892578,307.374664 613.435974,308.494019 
	C619.224792,312.692474 622.633606,320.810669 631.768677,319.466278 
	C632.180969,319.405609 632.682678,319.814484 633.115417,320.054047 
	C636.081055,321.695740 639.039368,323.350586 642.000000,325.462158 
	C642.001526,328.582092 641.871582,331.250641 642.063599,333.895782 
	C642.151611,335.108002 642.572876,337.016479 643.358093,337.333557 
	C646.842590,338.740540 650.684265,340.928131 654.071777,340.463531 
	C657.802368,339.951904 659.299744,341.719177 661.106934,343.687622 
	C663.094666,345.852722 664.660278,350.196503 666.581360,350.296631 
	C672.392395,350.599304 675.945190,353.564941 679.325806,357.543060 
	C680.928162,359.428680 682.739929,361.146454 684.546326,362.845062 
	C685.727295,363.955597 687.002380,365.656982 688.350525,365.774689 
	C693.215210,366.199493 694.484436,369.201996 695.081299,373.323883 
	C695.281189,374.704407 696.578674,375.925934 697.549133,377.504242 
	C700.217529,374.364136 693.646606,370.180847 699.235840,369.331970 
	C700.978210,373.222382 702.507690,376.637634 704.029053,380.376648 
	C704.013855,381.132751 704.006958,381.565063 703.699829,382.289246 
	C703.598267,390.056824 703.796875,397.532593 704.010437,405.241241 
	C704.025391,405.474152 704.044861,405.940491 704.028564,406.255920 
	C704.218262,407.342651 704.424377,408.113922 704.630432,408.885193 
	C704.515991,410.656647 704.401489,412.428070 703.947388,414.742432 
	C703.394226,415.863708 703.180664,416.442047 702.616516,416.949036 
	C702.050964,412.765198 701.835938,408.652679 701.546692,403.121399 
	C700.174072,405.619049 699.595642,406.671539 699.044128,407.675140 
	C696.921448,405.128204 695.223206,402.648315 693.078796,400.646362 
	C691.075073,398.775726 688.647339,397.335175 686.319214,395.840912 
	C680.458435,392.079163 675.991882,385.661621 668.418701,385.194672 
	C663.442749,384.887848 660.640442,382.472504 657.983398,378.715454 
	C656.763611,376.990753 654.336792,375.942535 652.260559,375.040833 
	C648.849182,373.559448 644.491516,373.283783 641.997681,370.940735 
	C639.572144,368.661835 637.544739,366.987396 634.232178,366.522919 
	C629.830994,365.905823 625.344421,365.281097 621.166748,363.859589 
	C616.987793,362.437622 612.218018,360.870331 609.433411,357.800781 
	C607.011414,355.130920 605.153625,352.975464 601.534424,353.026459 
	C598.169739,353.073853 596.342773,351.827362 595.846741,348.234344 
	C595.650818,346.815674 594.036743,344.677856 592.818848,344.490479 
	C589.455078,343.972931 585.959656,344.311401 581.606506,344.311401 
	C581.148132,350.600677 580.709900,356.613434 580.250732,362.913574 
	C579.265198,362.075317 578.645142,361.547913 578.025024,361.020508 
	C581.083008,344.771942 584.018433,328.498779 587.268860,312.288788 
	C588.331787,306.987854 590.214233,301.851227 592.127563,296.154724 
	C592.622864,295.323822 592.712524,294.977661 592.802185,294.631500 
	C593.122681,293.298309 593.443115,291.965118 593.914795,290.321655 
z"/>
<path fill="#30A7B1" opacity="1.000000" stroke="none" 
	d="
M583.044678,448.030762 
	C582.898865,447.362518 582.753113,446.694305 582.799316,445.362488 
	C583.312317,443.480194 583.633423,442.261414 584.231323,440.747070 
	C592.341125,440.228638 599.900085,440.405304 605.788208,447.055725 
	C607.565125,449.062714 610.897644,449.631165 613.382568,451.088623 
	C616.233643,452.760742 619.884521,454.104614 621.454041,456.657196 
	C623.301086,459.661041 625.062439,461.497162 628.489624,462.042694 
	C632.062012,462.611359 638.531799,469.359619 637.798523,472.262939 
	C637.034302,475.288483 638.128418,476.926819 640.112122,478.634705 
	C642.809204,480.956787 646.304138,482.873535 647.917969,485.809937 
	C650.318970,490.178650 651.333191,495.301544 653.025391,500.072388 
	C653.600159,501.692963 654.177307,504.340759 655.207825,504.582642 
	C658.554443,505.368164 661.202881,507.442657 665.125061,507.755005 
	C671.204773,508.239197 673.208435,505.683685 675.278503,501.429016 
	C676.470764,498.978546 677.938171,496.657501 679.058533,494.177368 
	C681.776672,488.160278 684.364319,482.084198 687.280640,476.030518 
	C687.924194,476.026764 688.291809,476.024414 688.659363,476.022034 
	C685.543091,483.322235 682.853943,490.842468 679.229126,497.880707 
	C668.999329,517.743530 656.594727,536.236816 642.746399,553.762024 
	C642.453247,554.132996 641.986145,554.366394 639.695862,556.460388 
	C639.164917,555.003357 638.972473,553.274902 638.053406,552.129211 
	C617.388245,526.368286 600.726318,498.298645 588.943542,467.399261 
	C587.996521,464.915985 587.290955,462.340607 586.694458,459.340271 
	C586.281311,457.597870 585.647034,456.323273 585.012695,455.048676 
	C584.946899,454.883270 584.881165,454.717865 585.091187,454.081970 
	C586.347839,451.020966 586.620239,448.725311 583.044678,448.030762 
M657.326721,511.755219 
	C658.144592,511.563843 658.962524,511.372467 659.780396,511.181061 
	C659.597290,510.633301 659.414124,510.085541 659.231018,509.537811 
	C658.670166,510.072510 658.109253,510.607208 657.326721,511.755219 
z"/>
<path fill="#3EBEC1" opacity="1.000000" stroke="none" 
	d="
M577.915161,361.434998 
	C578.645142,361.547913 579.265198,362.075317 580.250732,362.913574 
	C580.709900,356.613434 581.148132,350.600677 581.606506,344.311401 
	C585.959656,344.311401 589.455078,343.972931 592.818848,344.490479 
	C594.036743,344.677856 595.650818,346.815674 595.846741,348.234344 
	C596.342773,351.827362 598.169739,353.073853 601.534424,353.026459 
	C605.153625,352.975464 607.011414,355.130920 609.433411,357.800781 
	C612.218018,360.870331 616.987793,362.437622 621.166748,363.859589 
	C625.344421,365.281097 629.830994,365.905823 634.232178,366.522919 
	C637.544739,366.987396 639.572144,368.661835 641.997681,370.940735 
	C644.491516,373.283783 648.849182,373.559448 652.260559,375.040833 
	C654.336792,375.942535 656.763611,376.990753 657.983398,378.715454 
	C660.640442,382.472504 663.442749,384.887848 668.418701,385.194672 
	C675.991882,385.661621 680.458435,392.079163 686.319214,395.840912 
	C688.647339,397.335175 691.075073,398.775726 693.078796,400.646362 
	C695.223206,402.648315 696.921448,405.128204 699.044128,407.675140 
	C699.595642,406.671539 700.174072,405.619049 701.546692,403.121399 
	C701.835938,408.652679 702.050964,412.765198 702.624512,417.390839 
	C703.006531,420.262817 703.030090,422.621613 703.053650,424.980438 
	C703.053650,424.980438 703.038879,425.020111 702.653809,425.078247 
	C702.269165,426.796387 702.269653,428.456360 702.270142,430.116333 
	C700.085144,439.011963 697.900085,447.907593 695.372314,456.553009 
	C695.928162,450.111786 696.826660,443.920776 697.800476,437.211182 
	C693.077209,437.039001 688.103882,437.723755 685.602844,432.519958 
	C685.390259,432.077576 684.036377,432.270233 683.280457,431.986969 
	C680.591675,430.979492 677.920288,429.922791 675.267151,428.824524 
	C674.053772,428.322205 672.908630,427.216461 671.714600,427.189850 
	C668.453308,427.117157 667.530334,425.709778 666.677063,422.537964 
	C665.815063,419.333618 664.587341,414.044128 659.737976,415.286621 
	C654.768311,416.559937 652.115295,414.718018 648.935852,411.646179 
	C646.794128,409.576996 643.679443,408.515015 640.999207,406.594482 
	C639.868347,398.206909 638.904419,397.331543 630.984314,395.954926 
	C629.490845,395.695343 628.098877,394.550049 626.783813,393.635498 
	C624.734314,392.210297 622.891479,389.500977 620.784973,389.313354 
	C610.960510,388.438232 602.741760,384.226257 594.908447,378.673920 
	C593.470093,377.654358 591.237488,377.735596 589.361755,377.357452 
	C586.794678,376.839874 584.218201,376.368866 580.741760,375.705353 
	C580.650269,375.747864 579.331909,376.360504 578.004761,376.519348 
	C577.962402,373.314453 577.928772,370.563324 577.895142,367.812195 
	C577.865173,365.824615 577.835205,363.837036 577.915161,361.434998 
z"/>
<path fill="#30ADB7" opacity="1.000000" stroke="none" 
	d="
M772.997559,547.002930 
	C770.650635,547.669189 767.851562,541.985779 766.110352,547.958923 
	C764.090027,543.233521 762.267700,539.337524 756.617065,538.776550 
	C754.945862,538.610596 752.430176,535.963989 752.230347,534.231689 
	C751.802490,530.521851 750.028625,529.990601 746.946228,529.956543 
	C737.736755,529.854980 737.833740,529.755005 735.862122,521.042480 
	C735.580872,519.799622 734.028625,518.453308 732.743835,517.901550 
	C728.798157,516.207092 726.622925,513.766113 725.730835,509.252075 
	C725.162170,506.374237 722.167908,503.975769 720.261169,501.362366 
	C719.684692,501.617462 719.108276,501.872589 718.531799,502.127716 
	C718.351074,503.481659 718.319214,504.879089 717.940918,506.175354 
	C717.656555,507.149414 717.044434,508.628906 716.369751,508.753418 
	C715.229492,508.963837 713.653259,508.596893 712.787842,507.856354 
	C712.251892,507.397766 712.289551,505.083649 712.753357,504.824097 
	C717.910583,501.938202 717.235168,493.965057 723.876343,492.282104 
	C725.083557,491.976135 725.797363,489.739166 726.747681,488.399872 
	C728.707275,485.638062 730.736511,482.922150 732.589233,480.090546 
	C733.030151,479.416565 732.888855,478.361572 733.090820,476.939880 
	C733.358948,476.128357 733.608459,475.930481 734.068115,476.161041 
	C736.820374,484.632721 737.014099,484.724640 745.308655,484.156708 
	C746.351624,484.085266 747.903015,484.407013 748.435181,485.126343 
	C750.708130,488.198914 754.389954,487.982635 757.136658,489.419922 
	C761.895752,491.910217 766.774109,492.736115 771.724182,493.986786 
	C773.380615,494.405334 775.739563,495.666260 776.097961,496.995117 
	C778.018433,504.115356 784.090149,504.211456 790.072815,505.736664 
	C790.810791,500.472382 794.881104,500.923157 798.776245,500.995453 
	C800.270569,501.023193 801.768982,501.062775 803.260010,500.987823 
	C807.162354,500.791504 809.976685,501.208221 808.198792,506.460571 
	C807.471008,508.610413 807.730774,511.652802 811.590942,510.114929 
	C814.033691,509.141754 816.284973,507.687958 818.622131,506.449768 
	C819.456177,508.984314 820.290161,511.518860 821.111328,514.404907 
	C821.130432,515.224121 821.162476,515.691833 821.194519,516.159607 
	C821.194519,516.159607 821.159363,516.057068 820.814331,516.130066 
	C819.358704,517.196106 818.248108,518.189148 817.137573,519.182190 
	C815.067627,520.727417 812.997681,522.272644 810.306030,524.062500 
	C809.472717,524.895691 809.261047,525.484131 809.049438,526.072632 
	C809.049438,526.072632 809.003357,526.004761 808.668823,526.016846 
	C807.585571,526.736755 806.836731,527.444519 806.087891,528.152222 
	C806.087891,528.152222 806.079651,528.094421 806.103394,528.114746 
	C802.849487,530.127686 799.162476,531.671021 796.379883,534.206909 
	C790.646423,539.431885 787.000793,540.518005 780.052856,537.376526 
	C780.217285,539.558044 780.358337,541.429138 780.533325,543.750366 
	C778.714111,544.744202 776.713501,545.837097 774.356445,546.965027 
	C774.000000,547.000000 773.999023,547.000000 773.911255,546.832397 
	C773.550659,546.775574 773.277771,546.886292 773.002441,546.998535 
	C773.000000,547.000000 772.997559,547.002930 772.997559,547.002930 
z"/>
<path fill="#3EBEC1" opacity="1.000000" stroke="none" 
	d="
M394.841949,426.986908 
	C394.841949,426.986908 394.678375,426.776306 394.785583,426.212860 
	C394.548279,424.078278 394.303833,422.477051 393.841644,420.941315 
	C392.053802,415.000641 393.773712,412.464691 400.266815,412.191650 
	C402.764526,414.291992 404.756012,416.614838 407.262299,418.018616 
	C413.013123,421.239655 418.875000,424.354614 424.964294,426.846710 
	C428.993683,428.495789 433.493073,429.001129 437.786957,429.997253 
	C439.824677,430.469940 441.858978,430.985138 443.921082,431.319000 
	C448.187866,432.009857 452.470642,432.603058 456.750214,433.213135 
	C458.184052,433.417542 459.742615,433.257355 461.048035,433.766541 
	C467.634491,436.335999 474.082764,439.276031 480.731476,441.662720 
	C484.085815,442.866852 487.734436,443.473846 491.300659,443.804413 
	C495.080658,444.154755 499.479706,445.416565 501.124207,439.775879 
	C501.336945,439.046082 503.682373,438.567810 505.011627,438.625549 
	C506.758881,438.701447 508.477997,439.424225 510.542542,439.932831 
	C517.901489,446.147247 525.000488,452.217163 531.906738,458.498840 
	C533.897034,460.309113 535.332642,462.729248 537.174255,465.150940 
	C537.920105,465.610443 538.514160,465.788757 539.395874,466.117371 
	C541.459045,468.163513 543.234619,470.059326 545.038208,472.312683 
	C547.729797,475.434570 550.393433,478.198944 553.050415,480.973633 
	C553.043640,480.983917 553.051025,480.952759 553.034729,481.374725 
	C552.853760,488.973022 550.043640,490.097687 543.198120,487.312042 
	C537.548950,485.013153 532.473938,479.651184 525.284851,482.559601 
	C524.661133,482.811951 523.438110,481.488068 522.455505,480.968109 
	C520.499207,479.932861 518.608032,478.660706 516.527161,477.996521 
	C510.755066,476.154053 504.927643,474.465393 499.065704,472.931427 
	C495.767670,472.068390 492.358124,471.631378 488.858185,470.680847 
	C485.935333,465.246948 481.497253,462.142273 475.995728,460.912933 
	C470.604889,459.708282 464.983002,459.752136 460.557312,455.444489 
	C459.067535,453.994446 456.257660,453.924072 454.073914,453.158142 
	C450.751923,451.992950 447.266968,451.116913 444.184601,449.487457 
	C440.149689,447.354431 436.503876,444.753906 431.879547,448.253296 
	C431.356262,448.649261 428.957642,447.627136 428.363403,446.677612 
	C426.286102,443.358032 423.268524,442.504974 419.685211,441.796204 
	C417.103516,441.285553 414.787231,439.378082 412.384277,438.036774 
	C410.536987,437.005615 408.739166,435.885895 406.919342,434.805542 
	C406.670593,435.150238 406.421814,435.494904 406.173035,435.839600 
	C407.087372,437.298920 408.001678,438.758240 409.288147,440.811493 
	C407.247833,441.962280 405.469513,442.965271 403.691193,443.968292 
	C402.780853,442.550110 401.870514,441.131958 401.174103,439.207092 
	C400.338623,437.110626 399.289185,435.520874 398.239746,433.931122 
	C398.239746,433.931122 398.070251,433.829895 398.029358,433.646790 
	C397.988434,433.463684 397.774536,433.151794 397.774536,433.151794 
	C397.521820,432.752655 397.269104,432.353516 396.965942,431.276764 
	C396.565216,430.097870 396.214935,429.596588 395.864624,429.095306 
	C395.864624,429.095306 395.998077,429.034119 395.959229,428.737793 
	C395.560913,427.956604 395.201447,427.471741 394.841949,426.986908 
z"/>
<path fill="#51CCCB" opacity="1.000000" stroke="none" 
	d="
M704.037231,380.052887 
	C702.507690,376.637634 700.978210,373.222382 699.235840,369.331970 
	C693.646606,370.180847 700.217529,374.364136 697.549133,377.504242 
	C696.578674,375.925934 695.281189,374.704407 695.081299,373.323883 
	C694.484436,369.201996 693.215210,366.199493 688.350525,365.774689 
	C687.002380,365.656982 685.727295,363.955597 684.546326,362.845062 
	C682.739929,361.146454 680.928162,359.428680 679.325806,357.543060 
	C675.945190,353.564941 672.392395,350.599304 666.581360,350.296631 
	C664.660278,350.196503 663.094666,345.852722 661.106934,343.687622 
	C659.299744,341.719177 657.802368,339.951904 654.071777,340.463531 
	C650.684265,340.928131 646.842590,338.740540 643.358093,337.333557 
	C642.572876,337.016479 642.151611,335.108002 642.063599,333.895782 
	C641.871582,331.250641 642.001526,328.582092 642.159058,325.143250 
	C645.418701,323.241669 648.445923,321.566528 651.638916,321.143951 
	C655.297363,320.659729 657.321106,319.313141 656.953491,315.607605 
	C656.468933,310.722687 655.666016,305.869354 655.000000,301.002441 
	C655.113953,296.877441 658.037720,295.217224 660.254333,298.177734 
	C665.091309,304.637848 672.949036,304.787872 679.001404,308.593658 
	C684.841675,312.266113 689.829224,315.522888 691.207397,322.951324 
	C691.868835,326.516296 694.672363,329.636963 696.133423,333.115295 
	C697.295532,335.882080 697.892090,338.886414 698.685547,341.599976 
	C698.829590,341.183655 699.122131,340.338287 699.652588,339.277069 
	C701.590393,352.402527 703.290283,365.743805 704.713745,379.554413 
	C704.437256,380.023743 704.037231,380.052887 704.037231,380.052887 
z"/>
<path fill="#51CCCB" opacity="1.000000" stroke="none" 
	d="
M905.984985,377.947296 
	C905.970886,378.156799 905.956848,378.366333 905.497009,379.018188 
	C904.442017,380.234619 903.606445,380.919037 903.258545,381.796753 
	C899.801025,390.519806 896.424072,399.274750 892.970825,407.707916 
	C892.454163,407.133423 891.990967,406.871674 891.527771,406.609955 
	C891.701660,407.734955 891.875549,408.859955 892.270020,410.162659 
	C892.009155,410.898132 891.527649,411.455933 890.660400,412.048798 
	C888.683838,412.161255 887.046021,412.519623 885.511230,412.262665 
	C881.137634,411.530334 876.838684,410.257141 872.446594,409.761688 
	C869.340759,409.411316 866.107300,410.303925 862.972839,410.072632 
	C856.252441,409.576630 849.574219,408.410919 842.851013,408.077820 
	C835.078491,407.692749 831.020874,403.870239 831.203003,395.759216 
	C852.296631,384.688293 873.195129,373.897247 893.239502,363.547241 
	C889.929688,363.938141 885.463806,364.465515 881.072327,364.621490 
	C890.418152,360.522675 899.928650,359.975006 909.075317,361.565369 
	C907.994385,367.295624 906.989685,372.621460 905.984985,377.947296 
z"/>
<path fill="#34B5BC" opacity="1.000000" stroke="none" 
	d="
M641.000000,407.002441 
	C643.679443,408.515015 646.794128,409.576996 648.935852,411.646179 
	C652.115295,414.718018 654.768311,416.559937 659.737976,415.286621 
	C664.587341,414.044128 665.815063,419.333618 666.677063,422.537964 
	C667.530334,425.709778 668.453308,427.117157 671.714600,427.189850 
	C672.908630,427.216461 674.053772,428.322205 675.267151,428.824524 
	C677.920288,429.922791 680.591675,430.979492 683.280457,431.986969 
	C684.036377,432.270233 685.390259,432.077576 685.602844,432.519958 
	C688.103882,437.723755 693.077209,437.039001 697.800476,437.211182 
	C696.826660,443.920776 695.928162,450.111786 695.050659,456.730286 
	C693.059387,463.220764 691.047058,469.283752 688.847046,475.684387 
	C688.291809,476.024414 687.924194,476.026764 687.124268,475.716980 
	C685.135559,474.260254 683.579102,473.115692 681.971008,471.933075 
	C683.194702,467.871429 684.328674,464.212494 677.660461,465.471802 
	C676.211609,465.745392 674.225586,463.321228 672.525024,462.087067 
	C668.286011,459.010590 666.393066,452.808136 659.736694,452.814056 
	C658.533569,452.815125 657.228699,451.036377 656.144653,449.911743 
	C653.604492,447.276459 651.070618,444.622345 648.726196,441.815521 
	C647.085327,439.851013 644.310730,437.398682 644.593811,435.556305 
	C645.211060,431.540436 643.063354,431.499115 640.541382,430.994812 
	C638.842346,430.655060 635.830872,430.336334 635.716614,429.633057 
	C634.657898,423.113037 629.736694,425.403442 626.001343,424.572571 
	C625.881287,420.865967 625.661316,417.952332 630.583862,417.908356 
	C640.512817,417.819702 640.999817,417.084534 641.000000,407.002441 
z"/>
<path fill="#57CAC3" opacity="1.000000" stroke="none" 
	d="
M399.994415,411.996765 
	C393.773712,412.464691 392.053802,415.000641 393.841644,420.941315 
	C394.303833,422.477051 394.548279,424.078278 394.817200,426.083313 
	C390.864960,418.138306 386.809753,409.835754 383.179230,401.351440 
	C381.038788,396.349365 379.571533,391.059204 378.099731,385.354736 
	C378.910583,383.431274 379.423187,382.051727 380.365265,379.516235 
	C384.258820,381.067932 388.505707,382.610474 392.619385,384.450806 
	C395.517090,385.747101 398.160492,387.609436 401.052368,388.921631 
	C403.812653,390.174164 406.728516,391.098755 409.611389,392.061615 
	C412.145325,392.907990 414.685669,393.855560 417.301086,394.304718 
	C420.079285,394.781891 423.021698,394.386505 425.763763,394.973236 
	C431.104706,396.116028 436.466705,399.350922 441.212067,393.576385 
	C441.690704,392.993988 443.073792,393.154816 444.385712,393.015442 
	C451.832733,397.721558 458.931152,402.382965 466.136719,407.258484 
	C466.449005,407.735779 466.713776,407.906677 467.015320,407.984375 
	C466.992554,407.983459 467.026794,407.953125 467.054077,408.314056 
	C469.070038,409.769409 471.058716,410.863861 473.042236,411.976501 
	C473.037109,411.994751 473.025055,411.962280 473.124756,412.191223 
	C473.424957,412.707031 473.695618,412.890198 474.029419,412.961151 
	C474.022461,412.952545 474.048553,412.947845 474.025055,413.345703 
	C472.198212,420.816437 467.871033,422.271271 462.384033,417.668854 
	C461.656067,417.058228 460.905853,416.280426 460.042114,416.055420 
	C451.779968,413.903381 443.448822,414.715027 435.086243,415.433289 
	C430.288574,415.845398 425.275177,416.445709 420.653442,415.508514 
	C415.125488,414.387512 409.893372,411.763489 404.571991,409.690613 
	C402.574677,408.912598 400.686554,407.854340 398.748627,406.923859 
	C398.458832,407.258301 398.169037,407.592743 397.879242,407.927185 
	C398.584320,409.283722 399.289368,410.640259 399.994415,411.996765 
z"/>
<path fill="#61D0C7" opacity="1.000000" stroke="none" 
	d="
M444.037140,392.970734 
	C443.073792,393.154816 441.690704,392.993988 441.212067,393.576385 
	C436.466705,399.350922 431.104706,396.116028 425.763763,394.973236 
	C423.021698,394.386505 420.079285,394.781891 417.301086,394.304718 
	C414.685669,393.855560 412.145325,392.907990 409.611389,392.061615 
	C406.728516,391.098755 403.812653,390.174164 401.052368,388.921631 
	C398.160492,387.609436 395.517090,385.747101 392.619385,384.450806 
	C388.505707,382.610474 384.258820,381.067932 380.365265,379.516235 
	C379.423187,382.051727 378.910583,383.431274 378.079529,384.949707 
	C374.519989,376.103149 371.278870,367.117676 367.573303,356.844543 
	C407.954559,360.299927 445.459747,369.399139 480.923035,387.635529 
	C481.031708,389.253754 481.004578,390.146973 480.618286,390.992737 
	C455.010803,378.451477 428.302887,370.305634 400.832336,364.528564 
	C395.897888,363.490814 390.770905,363.368622 385.732849,362.823730 
	C385.672852,363.359283 385.612854,363.894836 385.552887,364.430359 
	C387.391266,364.817719 389.361938,364.903534 391.045959,365.642609 
	C400.224487,369.670929 409.517578,373.501587 418.412140,378.095551 
	C427.176697,382.622406 435.512970,387.978455 444.037140,392.970734 
z"/>
<path fill="#3DB7B8" opacity="1.000000" stroke="none" 
	d="
M403.709717,444.291504 
	C405.469513,442.965271 407.247833,441.962280 409.288147,440.811493 
	C408.001678,438.758240 407.087372,437.298920 406.173035,435.839600 
	C406.421814,435.494904 406.670593,435.150238 406.919342,434.805542 
	C408.739166,435.885895 410.536987,437.005615 412.384277,438.036774 
	C414.787231,439.378082 417.103516,441.285553 419.685211,441.796204 
	C423.268524,442.504974 426.286102,443.358032 428.363403,446.677612 
	C428.957642,447.627136 431.356262,448.649261 431.879547,448.253296 
	C436.503876,444.753906 440.149689,447.354431 444.184601,449.487457 
	C447.266968,451.116913 450.751923,451.992950 454.073914,453.158142 
	C456.257660,453.924072 459.067535,453.994446 460.557312,455.444489 
	C464.983002,459.752136 470.604889,459.708282 475.995728,460.912933 
	C481.497253,462.142273 485.935333,465.246948 488.633148,470.972809 
	C487.826599,471.966431 487.098541,472.684235 486.383209,472.671722 
	C481.760834,472.590912 480.508362,475.029236 480.886078,479.217316 
	C480.964050,480.082275 479.662689,481.071625 478.997101,482.003662 
	C477.228210,481.669922 475.463745,481.086212 473.689453,481.054504 
	C470.013733,480.988770 467.070648,480.787811 464.130280,477.362579 
	C461.896179,474.760071 457.130768,474.223480 453.407837,473.028778 
	C445.956360,470.637512 438.472229,468.339111 430.951538,466.176300 
	C427.344879,465.139130 423.678925,463.659454 419.863098,465.791931 
	C419.332062,466.088684 418.306244,465.500061 417.160004,465.259216 
	C416.810547,465.197144 416.833893,465.163849 416.889832,464.762543 
	C415.053314,461.576660 413.160889,458.792053 411.268463,456.007477 
	C411.268463,456.007477 411.017212,455.994171 410.928162,455.770508 
	C410.735321,455.413116 410.620148,455.290039 410.493591,455.177612 
	C410.356537,455.047089 410.219513,454.916534 409.941284,454.260284 
	C409.557373,453.496765 409.314606,453.258942 409.071838,453.021149 
	C407.983093,451.381195 406.894348,449.741211 405.778137,447.465393 
	C405.450745,446.595428 405.150848,446.361267 404.850952,446.127106 
	C404.476685,445.622986 404.102448,445.118835 403.709717,444.291504 
z"/>
<path fill="#49C2C0" opacity="1.000000" stroke="none" 
	d="
M620.435425,570.753784 
	C620.460022,571.113708 620.253967,571.165405 620.091675,571.095093 
	C619.929443,571.024719 619.814758,570.883057 619.744812,570.687134 
	C619.521545,570.241211 619.304260,570.074646 618.877563,569.678101 
	C616.374512,564.367004 613.887146,559.425232 611.695618,554.355591 
	C609.483704,549.238525 607.781738,543.894531 605.443848,538.840759 
	C603.818542,535.327515 599.684387,532.041138 599.854553,528.821655 
	C600.231506,521.692932 595.425598,517.555847 592.678345,512.261108 
	C591.960876,510.878174 589.962036,510.160034 588.265808,509.000244 
	C587.599182,507.637726 587.218506,506.411560 587.110596,504.979828 
	C587.487976,503.766052 587.592590,502.757782 587.697205,501.749512 
	C587.112915,501.858124 586.528687,501.966736 585.956421,502.066284 
	C585.968445,502.057159 585.949402,502.033813 585.943115,501.708679 
	C585.531494,500.934174 585.126221,500.484833 584.393799,499.948730 
	C583.746887,499.499420 583.354675,499.178680 583.117859,498.768219 
	C575.263977,485.158508 567.764038,471.328552 559.446716,458.008820 
	C555.010803,450.904877 549.166443,444.680328 543.976318,437.679932 
	C545.015930,436.524109 546.037048,435.747192 547.058228,434.970276 
	C547.226135,435.043274 547.394104,435.116302 547.766052,435.730042 
	C548.972656,437.175659 549.975342,438.080658 550.978027,438.985657 
	C550.978027,438.985626 551.012451,438.989624 551.040955,439.321594 
	C551.685791,440.113556 552.302063,440.573547 552.918396,441.033539 
	C552.918396,441.033539 552.988953,441.017303 553.086182,441.251068 
	C553.367737,441.733795 553.609009,441.900116 553.907288,441.983826 
	C554.244446,442.392578 554.581604,442.801361 555.080811,443.749756 
	C555.561707,444.502289 555.880615,444.715240 556.199524,444.928162 
	C556.512207,444.980194 556.754456,445.139435 557.064819,445.874023 
	C557.475037,446.555054 557.746704,446.767914 558.018372,446.980774 
	C558.018372,446.980774 558.000000,447.000000 558.030640,447.299683 
	C558.634460,448.085876 559.207642,448.572449 559.780823,449.058990 
	C566.954407,459.184265 575.012207,468.805145 581.130859,479.532166 
	C597.554321,508.325287 608.427551,539.621338 620.435425,570.753784 
z"/>
<path fill="#49C2C0" opacity="1.000000" stroke="none" 
	d="
M721.063049,460.037506 
	C716.009094,458.751892 714.877014,464.103668 711.189636,465.814209 
	C717.830322,456.706451 724.142822,446.869904 731.902710,438.351929 
	C745.939575,422.943756 761.968628,409.727173 780.458496,399.100403 
	C780.745789,398.863617 780.695679,398.929932 780.695679,398.929932 
	C781.011047,398.758270 781.326355,398.586639 782.135742,398.177795 
	C782.629700,397.940613 782.699646,397.912323 782.699646,397.912354 
	C783.190552,397.636505 783.681396,397.360687 784.911011,397.034790 
	C786.425598,396.359772 787.201538,395.734894 787.977478,395.109985 
	C788.322388,394.852081 788.667297,394.594208 789.598267,394.260345 
	C791.827698,394.500610 793.471069,394.816833 795.005371,395.455658 
	C777.613281,405.539703 761.532898,416.911835 747.380676,430.923035 
	C743.811584,434.456604 739.907776,437.652130 735.899780,441.096619 
	C735.428772,441.476257 735.215881,441.762299 735.002563,442.021423 
	C735.002258,441.994476 735.051025,442.017456 734.716675,442.040649 
	C733.925781,442.725952 733.469238,443.388092 733.007019,444.023376 
	C733.001343,443.996552 733.053589,444.013336 732.720947,444.043091 
	C731.936401,444.732635 731.484436,445.392426 731.013855,446.031921 
	C730.995178,446.011658 731.050232,446.012146 730.784180,446.165771 
	C730.354797,446.893341 730.191345,447.467255 730.013306,448.021240 
	C729.998718,448.001343 730.045959,448.015350 729.803589,448.104431 
	C729.380310,448.477142 729.199402,448.760834 729.020447,449.018738 
	C729.022461,448.992981 729.053711,449.034271 728.687195,449.047302 
	C727.562927,450.181580 726.805115,451.302856 726.088379,452.534119 
	C726.129395,452.644073 726.097046,452.876587 725.727539,452.945068 
	C724.582275,454.358368 723.806580,455.703247 723.020508,457.020813 
	C723.010254,456.993561 723.057434,457.027924 722.698975,457.056824 
	C721.900757,458.073181 721.460999,459.060608 721.024536,460.029602 
	C721.027893,460.011139 721.063049,460.037506 721.063049,460.037506 
z"/>
<path fill="#57CAC3" opacity="1.000000" stroke="none" 
	d="
M480.977417,391.040161 
	C481.004578,390.146973 481.031708,389.253754 481.091034,387.909821 
	C490.231354,392.442688 499.857086,396.684692 508.320374,402.592163 
	C519.643250,410.495636 530.065125,419.689972 540.599854,428.633667 
	C539.079895,428.233704 537.899841,427.268677 536.561584,426.931183 
	C535.836975,426.748413 534.842346,427.635925 533.663696,427.898346 
	C526.986206,422.540192 520.934937,416.857574 514.169800,412.215149 
	C503.354828,404.793732 492.065948,398.062927 480.977417,391.040161 
z"/>
<path fill="#57CAC3" opacity="1.000000" stroke="none" 
	d="
M795.114380,395.133057 
	C793.471069,394.816833 791.827698,394.500610 789.901001,394.145020 
	C797.765259,389.891510 805.784607,385.399689 814.102661,381.554077 
	C820.377869,378.652954 827.035400,376.578674 834.089722,374.088196 
	C834.656677,374.040009 835.014038,373.990295 835.014038,373.990295 
	C835.336914,373.897125 835.659729,373.803955 836.615417,373.795929 
	C839.498779,372.932648 841.749390,371.984222 843.999939,371.035797 
	C844.336121,370.941254 844.672241,370.846741 845.563599,370.781250 
	C846.416992,370.576111 846.715149,370.341949 847.013367,370.107788 
	C847.013367,370.107788 847.057922,370.015259 847.454102,370.072510 
	C851.564392,369.750366 855.278503,369.370972 859.006104,369.010620 
	C859.019592,369.029663 859.046021,369.068054 858.824646,369.344666 
	C857.118347,370.345734 855.678467,371.187958 854.141418,371.776337 
	C839.120117,377.527039 824.059509,383.175629 809.063354,388.990662 
	C804.331299,390.825592 799.759521,393.073944 795.114380,395.133057 
z"/>
<path fill="#61D0C7" opacity="1.000000" stroke="none" 
	d="
M893.024292,408.020691 
	C896.424072,399.274750 899.801025,390.519806 903.258545,381.796753 
	C903.606445,380.919037 904.442017,380.234619 905.316528,379.276337 
	C903.176025,386.794037 901.109924,394.622284 898.300232,402.173859 
	C890.177979,424.003296 879.569946,444.607880 866.804504,464.093536 
	C866.175659,465.053345 865.350098,465.884247 864.243896,466.837280 
	C863.871643,466.899384 863.742676,466.797119 863.850952,466.506104 
	C864.315125,465.464600 864.671082,464.714081 865.030273,463.637634 
	C865.035461,462.876831 865.037476,462.441925 865.146362,461.756226 
	C865.520325,461.031189 865.787476,460.557007 866.269531,459.954346 
	C866.666138,459.550720 866.847778,459.275574 867.055420,458.759277 
	C867.081482,458.518188 867.107239,458.033844 867.405640,457.869415 
	C869.958557,454.755768 872.498962,451.976135 874.380493,448.805511 
	C875.987183,446.097931 876.837219,442.941406 878.225098,439.708618 
	C882.024902,432.814850 885.768799,426.269562 889.135742,419.535828 
	C890.266052,417.275208 890.436768,414.534821 891.046143,412.013733 
	C891.527649,411.455933 892.009155,410.898132 892.281250,409.868500 
	C892.389343,408.938019 892.706848,408.479340 893.024292,408.020691 
z"/>
<path fill="#61D0C7" opacity="1.000000" stroke="none" 
	d="
M906.214478,377.685486 
	C906.989685,372.621460 907.994385,367.295624 909.075317,361.565369 
	C899.928650,359.975006 890.418152,360.522675 880.810730,364.902039 
	C875.311707,366.690094 870.148743,367.826202 864.772583,368.684265 
	C863.228943,367.848083 861.898315,367.290009 860.567749,366.731964 
	C867.035217,364.937042 873.419800,362.709229 879.990112,361.451416 
	C889.239563,359.680695 898.623108,358.603241 907.958923,357.297852 
	C909.378113,357.099426 910.848877,357.270264 913.307861,357.270264 
	C910.863098,364.448517 908.653564,370.936066 906.214478,377.685486 
z"/>
<path fill="#57CAC3" opacity="1.000000" stroke="none" 
	d="
M583.954468,441.042633 
	C583.633423,442.261414 583.312317,443.480194 582.768005,445.021515 
	C580.531433,434.677307 578.457153,424.021362 576.551025,413.335480 
	C576.117554,410.905121 576.266418,408.370911 576.396362,405.382568 
	C576.645508,404.880646 577.004578,404.823547 577.265137,405.126770 
	C577.996521,409.963776 578.352905,414.513062 578.964783,419.027710 
	C579.877075,425.759460 580.920471,432.475098 582.057617,439.172211 
	C582.178223,439.882568 583.298157,440.423248 583.954468,441.042633 
z"/>
<path fill="#61D0C7" opacity="1.000000" stroke="none" 
	d="
M863.936157,466.950562 
	C859.644897,473.370148 855.459473,479.864838 850.867859,486.058350 
	C848.227600,489.619720 844.929443,492.693359 841.529419,496.051208 
	C841.131470,496.115845 840.922180,495.940155 840.987183,495.612305 
	C841.390015,494.227203 841.727905,493.169922 842.381958,492.049622 
	C843.147400,491.343689 843.596619,490.700806 844.029541,490.050812 
	C844.013245,490.043701 844.044434,490.030334 844.263062,489.926941 
	C844.752808,489.625671 844.935852,489.365784 845.038940,489.030151 
	C845.046997,489.016449 845.060974,489.046112 845.383545,489.002991 
	C846.838989,487.666962 847.971802,486.374054 849.375916,484.920776 
	C850.115845,483.867310 850.584534,482.974213 851.348938,481.916168 
	C855.677307,476.766541 859.710022,471.781860 863.742676,466.797119 
	C863.742676,466.797119 863.871643,466.899384 863.936157,466.950562 
z"/>
<path fill="#57CAC3" opacity="1.000000" stroke="none" 
	d="
M577.564209,368.016785 
	C577.928772,370.563324 577.962402,373.314453 577.997437,376.990906 
	C578.007141,384.614227 578.015381,391.312195 578.016968,398.393402 
	C577.703979,400.180176 577.397522,401.583740 577.075012,402.519775 
	C576.781860,394.402252 576.504822,386.752197 576.227783,379.102173 
	C576.562927,375.475250 576.898071,371.848297 577.564209,368.016785 
z"/>
<path fill="#49C2C0" opacity="1.000000" stroke="none" 
	d="
M533.969543,428.040649 
	C534.842346,427.635925 535.836975,426.748413 536.561584,426.931183 
	C537.899841,427.268677 539.079895,428.233704 540.678711,428.960815 
	C541.622803,429.462891 542.213867,429.941437 542.856934,431.022614 
	C541.937073,432.442017 540.965149,433.258759 539.702148,433.915009 
	C537.597229,431.849854 535.783386,429.945251 533.969543,428.040649 
z"/>
<path fill="#61D0C7" opacity="1.000000" stroke="none" 
	d="
M858.992676,368.991547 
	C855.278503,369.370972 851.564392,369.750366 847.498047,370.099091 
	C850.918396,368.931366 854.690918,367.794281 858.733154,367.156219 
	C858.999512,368.100677 858.996094,368.546112 858.992676,368.991547 
z"/>
<path fill="#61D0C7" opacity="1.000000" stroke="none" 
	d="
M833.128174,505.132019 
	C830.663025,507.714569 828.197937,510.297089 825.343872,512.917175 
	C824.954956,512.954712 824.802795,512.802368 824.885254,512.464783 
	C825.977783,510.758209 826.987915,509.389221 828.255859,507.867493 
	C828.690735,507.159058 828.867737,506.603302 829.022339,506.023804 
	C829.000000,506.000000 829.047852,506.045197 829.347534,506.030090 
	C830.125610,505.696075 830.604065,505.377228 831.376831,505.044250 
	C832.056519,504.960663 832.441772,504.891205 832.902344,504.899292 
	C832.977661,504.976837 833.128174,505.132019 833.128174,505.132019 
z"/>
<path fill="#3DB7B8" opacity="1.000000" stroke="none" 
	d="
M704.029053,380.376648 
	C704.037231,380.052887 704.437256,380.023743 704.637329,380.013000 
	C704.879211,388.359131 704.920959,396.716003 704.687134,405.518951 
	C704.411499,405.965057 704.044861,405.940491 704.044861,405.940491 
	C704.044861,405.940491 704.025391,405.474152 704.014343,404.771729 
	C704.002197,396.712006 704.001099,389.354706 704.000000,381.997406 
	C704.006958,381.565063 704.013855,381.132751 704.029053,380.376648 
z"/>
<path fill="#61D0C7" opacity="1.000000" stroke="none" 
	d="
M841.236816,496.202942 
	C838.814636,499.165710 836.287170,502.041382 833.443970,505.024536 
	C833.128174,505.132019 832.977661,504.976837 833.017456,504.578308 
	C835.678894,501.433228 838.300537,498.686707 840.922180,495.940155 
	C840.922180,495.940155 841.131470,496.115845 841.236816,496.202942 
z"/>
<path fill="#30A7B1" opacity="1.000000" stroke="none" 
	d="
M576.143433,379.556915 
	C576.504822,386.752197 576.781860,394.402252 577.046143,402.826355 
	C577.023804,404.008148 577.014160,404.415833 577.004578,404.823547 
	C577.004578,404.823547 576.645508,404.880646 576.469238,404.925232 
	C576.215027,396.650452 576.137085,388.331055 576.143433,379.556915 
z"/>
<path fill="#57CAC3" opacity="1.000000" stroke="none" 
	d="
M539.993286,434.075531 
	C540.965149,433.258759 541.937073,432.442017 542.965027,431.292236 
	C544.306763,432.086853 545.592407,433.214417 546.968140,434.656128 
	C546.037048,435.747192 545.015930,436.524109 543.693604,437.534729 
	C542.259338,436.537476 541.126343,435.306488 539.993286,434.075531 
z"/>
<path fill="#30ADB7" opacity="1.000000" stroke="none" 
	d="
M411.217255,456.360535 
	C413.160889,458.792053 415.053314,461.576660 416.903015,464.747559 
	C414.962189,462.327118 413.064117,459.520355 411.217255,456.360535 
z"/>
<path fill="#57CAC3" opacity="1.000000" stroke="none" 
	d="
M582.925964,448.274292 
	C586.620239,448.725311 586.347839,451.020966 585.056396,453.817322 
	C584.099670,452.188019 583.453491,450.352936 582.925964,448.274292 
z"/>
<path fill="#61D0C7" opacity="1.000000" stroke="none" 
	d="
M843.609985,371.029846 
	C841.749390,371.984222 839.498779,372.932648 836.865601,373.839783 
	C838.728638,372.873627 840.974365,371.948761 843.609985,371.029846 
z"/>
<path fill="#51CCCB" opacity="1.000000" stroke="none" 
	d="
M703.333923,424.716064 
	C703.030090,422.621613 703.006531,420.262817 702.974976,417.462189 
	C703.180664,416.442047 703.394226,415.863708 703.877563,415.121948 
	C703.969604,418.122925 703.791870,421.287292 703.333923,424.716064 
z"/>
<path fill="#57CAC3" opacity="1.000000" stroke="none" 
	d="
M398.201843,434.265015 
	C399.289185,435.520874 400.338623,437.110626 401.122620,438.881958 
	C399.959412,437.575348 399.061707,436.087128 398.201843,434.265015 
z"/>
<path fill="#49C2C0" opacity="1.000000" stroke="none" 
	d="
M702.495728,429.819244 
	C702.269653,428.456360 702.269165,426.796387 702.632812,425.080963 
	C702.904968,426.524384 702.813110,428.023285 702.495728,429.819244 
z"/>
<path fill="#61D0C7" opacity="1.000000" stroke="none" 
	d="
M821.524292,516.148071 
	C821.162476,515.691833 821.130432,515.224121 821.404663,514.262695 
	C822.741577,513.446777 823.772156,513.124573 824.802795,512.802368 
	C824.802795,512.802368 824.954956,512.954712 825.031006,513.031006 
	C824.022766,514.117065 822.938416,515.126831 821.524292,516.148071 
z"/>
<path fill="#57CAC3" opacity="1.000000" stroke="none" 
	d="
M859.006104,369.010620 
	C858.996094,368.546112 858.999512,368.100677 859.003845,367.321045 
	C859.349487,366.895416 859.694153,366.803986 860.303284,366.722260 
	C861.898315,367.290009 863.228943,367.848083 864.348022,368.700439 
	C862.439758,369.019196 860.742859,369.043640 859.046021,369.068054 
	C859.046021,369.068054 859.019592,369.029663 859.006104,369.010620 
z"/>
<path fill="#57CAC3" opacity="1.000000" stroke="none" 
	d="
M550.930054,438.681946 
	C549.975342,438.080658 548.972656,437.175659 547.949280,435.934692 
	C548.913025,436.525208 549.897522,437.451752 550.930054,438.681946 
z"/>
<path fill="#57CAC3" opacity="1.000000" stroke="none" 
	d="
M584.964111,455.357971 
	C585.647034,456.323273 586.281311,457.597870 586.584351,458.939850 
	C585.807312,457.893921 585.361450,456.780609 584.964111,455.357971 
z"/>
<path fill="#61D0C7" opacity="1.000000" stroke="none" 
	d="
M817.491699,519.132690 
	C818.248108,518.189148 819.358704,517.196106 820.807983,516.183899 
	C820.046387,517.137512 818.946106,518.110352 817.491699,519.132690 
z"/>
<path fill="#57CAC3" opacity="1.000000" stroke="none" 
	d="
M787.657104,395.109131 
	C787.201538,395.734894 786.425598,396.359772 785.333923,396.994202 
	C785.791077,396.371857 786.563965,395.740051 787.657104,395.109131 
z"/>
<path fill="#30A7B1" opacity="1.000000" stroke="none" 
	d="
M806.421631,528.145691 
	C806.836731,527.444519 807.585571,526.736755 808.703003,526.039673 
	C808.299500,526.746582 807.527405,527.442871 806.421631,528.145691 
z"/>
<path fill="#57CAC3" opacity="1.000000" stroke="none" 
	d="
M552.867676,440.736328 
	C552.302063,440.573547 551.685791,440.113556 551.041748,439.338867 
	C551.614990,439.495850 552.215942,439.967468 552.867676,440.736328 
z"/>
<path fill="#57CAC3" opacity="1.000000" stroke="none" 
	d="
M559.754883,448.760193 
	C559.207642,448.572449 558.634460,448.085876 558.041931,447.290527 
	C558.591370,447.474945 559.160156,447.968201 559.754883,448.760193 
z"/>
<path fill="#49C2C0" opacity="1.000000" stroke="none" 
	d="
M706.481445,472.720154 
	C706.372803,473.276154 705.994629,473.984863 705.330017,474.825684 
	C705.433105,474.262848 705.822510,473.567871 706.481445,472.720154 
z"/>
<path fill="#51CCCB" opacity="1.000000" stroke="none" 
	d="
M704.028564,406.255920 
	C704.044861,405.940491 704.411499,405.965057 704.594421,405.979034 
	C704.822876,406.728394 704.868469,407.463745 704.772217,408.542175 
	C704.424377,408.113922 704.218262,407.342651 704.028564,406.255920 
z"/>
<path fill="#30A7B1" opacity="1.000000" stroke="none" 
	d="
M809.343384,525.949341 
	C809.261047,525.484131 809.472717,524.895691 809.987549,524.186035 
	C810.072937,524.651917 809.855164,525.238953 809.343384,525.949341 
z"/>
<path fill="#57CAC3" opacity="1.000000" stroke="none" 
	d="
M395.861328,429.409607 
	C396.214935,429.596588 396.565216,430.097870 396.876923,430.931610 
	C396.511536,430.750671 396.184784,430.237305 395.861328,429.409607 
z"/>
<path fill="#57CAC3" opacity="1.000000" stroke="none" 
	d="
M394.837585,427.303101 
	C395.201447,427.471741 395.560913,427.956604 395.892059,428.762512 
	C395.520264,428.595490 395.176758,428.107391 394.837585,427.303101 
z"/>
<path fill="#57CAC3" opacity="1.000000" stroke="none" 
	d="
M780.732239,398.886047 
	C780.695679,398.929932 780.745789,398.863617 780.768677,398.860718 
	C780.791626,398.857849 780.768799,398.842133 780.732239,398.886047 
z"/>
<path fill="#61D0C7" opacity="1.000000" stroke="none" 
	d="
M592.576172,294.789368 
	C592.712524,294.977661 592.622864,295.323822 592.306641,295.825317 
	C592.170166,295.636169 592.260193,295.291687 592.576172,294.789368 
z"/>
<path fill="#57CAC3" opacity="1.000000" stroke="none" 
	d="
M782.688110,397.805969 
	C782.699646,397.912323 782.629700,397.940613 782.630127,397.964233 
	C782.630554,397.987854 782.676636,397.699615 782.688110,397.805969 
z"/>
<path fill="#61D0C7" opacity="1.000000" stroke="none" 
	d="
M834.932251,373.879303 
	C835.014038,373.990295 834.656677,374.040009 834.479858,374.066101 
	C834.303040,374.092163 834.471558,373.760681 834.471558,373.760681 
	C834.471558,373.760681 834.850464,373.768311 834.932251,373.879303 
z"/>
<path fill="#61D0C7" opacity="1.000000" stroke="none" 
	d="
M846.722046,370.120605 
	C846.715149,370.341949 846.416992,370.576111 845.823486,370.827240 
	C845.829102,370.607269 846.129883,370.370331 846.722046,370.120605 
z"/>
<path fill="#30ADB7" opacity="1.000000" stroke="none" 
	d="
M410.505066,455.328186 
	C410.620148,455.290039 410.735321,455.413116 410.920776,455.644958 
	C410.760162,455.801453 410.598206,455.713348 410.505066,455.328186 
z"/>
<path fill="#57CAC3" opacity="1.000000" stroke="none" 
	d="
M397.686401,433.274048 
	C397.774536,433.151794 397.988434,433.463684 398.029572,433.548096 
	C398.070709,433.632477 397.768433,433.645294 397.768433,433.645294 
	C397.768433,433.645294 397.598236,433.396271 397.686401,433.274048 
z"/>
<path fill="#57CAC3" opacity="1.000000" stroke="none" 
	d="
M553.856689,441.749969 
	C553.609009,441.900116 553.367737,441.733795 553.080872,441.286865 
	C553.322327,441.099365 553.598328,441.241791 553.856689,441.749969 
z"/>
<path fill="#30ADB7" opacity="1.000000" stroke="none" 
	d="
M424.811005,476.188324 
	C424.474335,476.032745 424.211975,475.800079 423.961426,475.296692 
	C423.973175,475.026001 424.015381,474.994202 424.240540,475.099731 
	C424.716675,475.407227 424.904816,475.656555 425.030151,475.953278 
	C425.030151,475.953278 424.885345,476.111206 424.811005,476.188324 
z"/>
<path fill="#57CAC3" opacity="1.000000" stroke="none" 
	d="
M556.087769,444.667786 
	C555.880615,444.715240 555.561707,444.502289 555.171753,443.999573 
	C555.392517,443.942291 555.684265,444.174866 556.087769,444.667786 
z"/>
<path fill="#3EBEC1" opacity="1.000000" stroke="none" 
	d="
M404.926208,446.400543 
	C405.150848,446.361267 405.450745,446.595428 405.792114,447.127106 
	C405.556244,447.174408 405.278839,446.924194 404.926208,446.400543 
z"/>
<path fill="#57CAC3" opacity="1.000000" stroke="none" 
	d="
M557.950806,446.724640 
	C557.746704,446.767914 557.475037,446.555054 557.134583,446.085480 
	C557.338257,446.042023 557.610779,446.255280 557.950806,446.724640 
z"/>
<path fill="#49C2C0" opacity="1.000000" stroke="none" 
	d="
M708.475830,469.695251 
	C708.594543,469.904663 708.480408,470.274689 708.088867,470.762543 
	C707.955200,470.538849 708.099060,470.197357 708.475830,469.695251 
z"/>
<path fill="#49C2C0" opacity="1.000000" stroke="none" 
	d="
M710.475281,466.672791 
	C710.588623,466.895599 710.455383,467.269653 710.027466,467.743988 
	C709.898132,467.504242 710.063416,467.164154 710.475281,466.672791 
z"/>
<path fill="#30ADB7" opacity="1.000000" stroke="none" 
	d="
M409.074829,453.297668 
	C409.314606,453.258942 409.557373,453.496765 409.867828,453.986084 
	C409.649597,454.016449 409.363708,453.795319 409.074829,453.297668 
z"/>
<path fill="#34B5BC" opacity="1.000000" stroke="none" 
	d="
M588.551758,509.136597 
	C589.962036,510.160034 591.960876,510.878174 592.678345,512.261108 
	C595.425598,517.555847 600.231506,521.692932 599.854553,528.821655 
	C599.684387,532.041138 603.818542,535.327515 605.443848,538.840759 
	C607.781738,543.894531 609.483704,549.238525 611.695618,554.355591 
	C613.887146,559.425232 616.374512,564.367004 618.951172,569.875122 
	C619.313049,570.644531 619.527954,570.810425 619.814758,570.883057 
	C619.814758,570.883057 619.929443,571.024719 619.985535,571.098511 
	C620.193665,572.792664 620.345642,574.412964 620.566467,576.766785 
	C613.445374,575.250244 606.398438,573.749512 598.728760,572.116150 
	C599.856323,570.794434 600.691589,569.815308 601.630554,568.714661 
	C601.078125,568.488708 600.549500,568.058838 600.248840,568.182617 
	C597.230652,569.425415 595.119629,569.067688 593.111267,565.983459 
	C592.081543,564.402222 589.370239,563.334045 587.311340,563.132202 
	C583.601135,562.768555 581.503418,561.445740 580.852539,557.598816 
	C580.608887,556.159119 579.461731,554.439575 578.218140,553.679260 
	C573.652771,550.888184 568.129700,549.223633 564.392822,545.645874 
	C560.932251,542.332642 555.723145,541.098755 553.551636,536.020569 
	C552.864929,534.414490 549.230957,533.989075 546.887146,533.196838 
	C545.057983,532.578552 542.975281,532.550598 541.289551,531.698120 
	C536.610840,529.332031 532.307190,526.219055 526.472961,527.535156 
	C525.201477,527.822021 523.239990,526.344727 522.008667,525.226013 
	C519.897217,523.307739 518.126648,521.016907 516.172119,518.920532 
	C515.853760,518.579102 514.977661,518.473572 514.944885,518.191040 
	C513.944458,509.569611 504.446320,509.638916 500.503448,504.038910 
	C499.459869,502.556763 497.661041,501.453125 497.041504,499.853302 
	C494.823456,494.125366 489.931946,492.097992 484.936340,489.626251 
	C482.449890,488.395966 480.994110,485.082672 479.034607,482.357666 
	C479.662689,481.071625 480.964050,480.082275 480.886078,479.217316 
	C480.508362,475.029236 481.760834,472.590912 486.383209,472.671722 
	C487.098541,472.684235 487.826599,471.966431 488.773773,471.294373 
	C492.358124,471.631378 495.767670,472.068390 499.065704,472.931427 
	C504.927643,474.465393 510.755066,476.154053 516.527161,477.996521 
	C518.608032,478.660706 520.499207,479.932861 522.455505,480.968109 
	C523.438110,481.488068 524.661133,482.811951 525.284851,482.559601 
	C532.473938,479.651184 537.548950,485.013153 543.198120,487.312042 
	C550.043640,490.097687 552.853760,488.973022 553.335938,481.519714 
	C558.731445,487.104248 564.123901,492.725555 568.821472,498.877502 
	C578.410828,511.435852 587.626038,524.279846 597.056763,537.161499 
	C597.219971,537.365967 597.321838,537.415039 597.423706,537.464111 
	C597.285034,537.307068 597.146423,537.150085 597.047852,536.583984 
	C596.890442,535.054199 596.827087,533.889343 596.474243,532.819946 
	C593.865906,524.914734 591.199707,517.028687 588.551758,509.136597 
M598.507996,539.395264 
	C598.507996,539.395264 598.573425,539.514771 598.507996,539.395264 
z"/>
<path fill="#3DB7B8" opacity="1.000000" stroke="none" 
	d="
M424.260925,467.463684 
	C423.668274,468.157257 422.839691,468.628967 422.011139,469.100647 
	C421.835266,468.635681 421.659393,468.170685 421.483521,467.705688 
	C422.330688,467.551056 423.177856,467.396423 424.260925,467.463684 
z"/>
<path fill="#3DB7B8" opacity="1.000000" stroke="none" 
	d="
M425.337585,475.927734 
	C424.904816,475.656555 424.716675,475.407227 424.262512,475.085022 
	C424.614044,474.485260 425.168762,474.005737 425.723511,473.526215 
	C425.697357,474.318207 425.671173,475.110199 425.337585,475.927734 
z"/>
<path fill="#57CAC3" opacity="1.000000" stroke="none" 
	d="
M654.584595,301.001129 
	C655.666016,305.869354 656.468933,310.722687 656.953491,315.607605 
	C657.321106,319.313141 655.297363,320.659729 651.638916,321.143951 
	C648.445923,321.566528 645.418701,323.241669 642.159119,324.682312 
	C639.039368,323.350586 636.081055,321.695740 633.115417,320.054047 
	C632.682678,319.814484 632.180969,319.405609 631.768677,319.466278 
	C622.633606,320.810669 619.224792,312.692474 613.435974,308.494019 
	C611.892578,307.374664 609.847656,306.952484 608.285950,305.851471 
	C606.388672,304.513916 604.711853,302.845459 603.033020,301.223572 
	C602.152222,300.372711 601.667114,298.913208 600.664062,298.423706 
	C597.014038,296.642395 595.074524,294.515442 597.810913,290.484253 
	C598.037292,290.150848 597.472412,289.280426 597.136353,288.341675 
	C598.476929,283.904999 599.956421,279.786194 601.158630,276.439178 
	C604.032288,275.433868 606.354980,274.621277 608.677734,273.808685 
	C608.885498,273.218842 609.093323,272.629028 609.301086,272.039185 
	C615.210815,276.535919 621.046387,281.136017 627.076965,285.464355 
	C628.814636,286.711548 631.119690,287.864075 633.154541,287.847260 
	C636.690369,287.818054 638.947021,288.427765 640.191711,292.211456 
	C642.356506,298.792145 647.780701,300.810364 654.584595,301.001129 
z"/>
<path fill="#7ED8D3" opacity="1.000000" stroke="none" 
	d="
M858.824646,369.344666 
	C860.742859,369.043640 862.439758,369.019196 864.561157,368.978546 
	C870.148743,367.826202 875.311707,366.690094 880.736328,365.273438 
	C885.463806,364.465515 889.929688,363.938141 893.239502,363.547241 
	C873.195129,373.897247 852.296631,384.688293 830.891846,395.898071 
	C822.584045,401.514130 814.782410,406.711456 806.641602,411.969116 
	C805.167297,412.986145 804.032166,413.942841 802.608582,414.927277 
	C801.875427,415.280426 801.430725,415.605896 800.691589,415.987030 
	C799.943054,416.392059 799.489014,416.741394 798.761597,417.177551 
	C797.987000,417.821960 797.485779,418.379547 796.640991,418.996582 
	C792.185852,422.362274 788.074219,425.668549 783.972046,428.980530 
	C783.981445,428.986267 783.968567,428.953278 783.626221,429.005890 
	C776.833862,434.652893 770.383728,440.247314 763.597900,445.917053 
	C761.817688,447.635956 760.373169,449.279449 758.930237,450.949646 
	C758.931763,450.976379 758.950684,450.930603 758.650757,450.930054 
	C757.912964,451.282623 757.475159,451.635712 756.919434,452.247559 
	C756.499817,452.987793 756.198120,453.469269 755.552734,453.988098 
	C749.121277,460.280518 743.033569,466.535583 736.636475,472.894104 
	C735.806641,473.644165 735.286133,474.290741 734.579346,475.033508 
	C734.170715,475.309967 734.011292,475.534821 733.914795,475.804230 
	C733.608459,475.930481 733.358948,476.128357 733.058838,476.611572 
	C723.729248,487.916016 714.243835,498.801056 705.369751,510.163483 
	C698.458374,519.012756 692.307922,528.456238 685.413574,537.410034 
	C693.232056,509.964172 705.053406,484.405487 721.001404,460.380676 
	C721.063049,460.037506 721.027893,460.011139 721.303711,459.874146 
	C722.072205,458.834076 722.564819,457.931000 723.057434,457.027924 
	C723.057434,457.027924 723.010254,456.993561 723.323425,456.880493 
	C724.456726,455.470459 725.276855,454.173523 726.097046,452.876587 
	C726.097046,452.876587 726.129395,452.644073 726.369873,452.323578 
	C727.424744,451.013489 728.239258,450.023865 729.053711,449.034271 
	C729.053711,449.034271 729.022461,448.992981 729.268066,448.936401 
	C729.691162,448.591675 729.868591,448.303528 730.045959,448.015350 
	C730.045959,448.015350 729.998718,448.001343 730.267090,447.853485 
	C730.707031,447.141144 730.878601,446.576630 731.050232,446.012146 
	C731.050232,446.012146 730.995178,446.011658 731.335449,445.999268 
	C732.135010,445.329041 732.594299,444.671173 733.053589,444.013306 
	C733.053589,444.013336 733.001343,443.996552 733.273987,443.896484 
	C734.048096,443.203461 734.549561,442.610474 735.051025,442.017456 
	C735.051025,442.017456 735.002258,441.994476 735.240845,441.904297 
	C735.705505,441.543762 735.931641,441.273407 736.157776,441.003021 
	C739.907776,437.652130 743.811584,434.456604 747.380676,430.923035 
	C761.532898,416.911835 777.613281,405.539703 795.005371,395.455627 
	C799.759521,393.073944 804.331299,390.825592 809.063354,388.990662 
	C824.059509,383.175629 839.120117,377.527039 854.141418,371.776337 
	C855.678467,371.187958 857.118347,370.345734 858.824646,369.344666 
z"/>
<path fill="#30ADB7" opacity="1.000000" stroke="none" 
	d="
M720.391846,512.466736 
	C719.941345,512.350464 719.665161,512.066650 719.410339,511.764832 
	C719.403748,511.757050 719.631470,511.551575 719.749878,511.438324 
	C720.022949,511.724518 720.295959,512.010681 720.391846,512.466736 
z"/>
<path fill="#7ED8D3" opacity="1.000000" stroke="none" 
	d="
M684.449341,539.413208 
	C684.523804,539.355530 684.545410,539.574890 684.545410,539.574890 
	C684.545410,539.574890 684.374878,539.470825 684.449341,539.413208 
z"/>
<path fill="#30ADB7" opacity="1.000000" stroke="none" 
	d="
M774.000000,547.000000 
	C773.725708,547.112244 773.451355,547.224487 773.087280,547.169800 
	C772.997559,547.002930 773.000000,547.000000 773.250977,546.999634 
	C773.501892,546.999207 773.999023,547.000000 773.999023,547.000000 
	C773.999023,547.000000 774.000000,547.000000 774.000000,547.000000 
z"/>
<path fill="#51CCCB" opacity="1.000000" stroke="none" 
	d="
M703.699829,382.289246 
	C704.001099,389.354706 704.002197,396.712006 703.999390,404.538818 
	C703.796875,397.532593 703.598267,390.056824 703.699829,382.289246 
z"/>
<path fill="#30ADB7" opacity="1.000000" stroke="none" 
	d="
M577.265137,405.126770 
	C577.014160,404.415833 577.023804,404.008148 577.062256,403.293884 
	C577.397522,401.583740 577.703979,400.180176 578.367310,398.353821 
	C580.351929,396.927155 581.979492,395.923248 583.974182,394.692963 
	C585.423462,396.777893 586.604187,398.719818 588.040161,400.449890 
	C588.885376,401.468201 590.144775,402.877136 591.202576,402.864166 
	C597.534607,402.786530 600.873840,407.317139 604.482971,411.250183 
	C607.779541,414.842590 609.102173,420.663239 615.570251,420.441315 
	C615.950867,420.428284 616.536743,420.920074 616.714539,421.316986 
	C618.626648,425.584015 622.354553,425.175323 626.002441,425.002441 
	C629.736694,425.403442 634.657898,423.113037 635.716614,429.633057 
	C635.830872,430.336334 638.842346,430.655060 640.541382,430.994812 
	C643.063354,431.499115 645.211060,431.540436 644.593811,435.556305 
	C644.310730,437.398682 647.085327,439.851013 648.726196,441.815521 
	C651.070618,444.622345 653.604492,447.276459 656.144653,449.911743 
	C657.228699,451.036377 658.533569,452.815125 659.736694,452.814056 
	C666.393066,452.808136 668.286011,459.010590 672.525024,462.087067 
	C674.225586,463.321228 676.211609,465.745392 677.660461,465.471802 
	C684.328674,464.212494 683.194702,467.871429 681.971008,471.933075 
	C683.579102,473.115692 685.135559,474.260254 686.848267,475.718384 
	C684.364319,482.084198 681.776672,488.160278 679.058533,494.177368 
	C677.938171,496.657501 676.470764,498.978546 675.278503,501.429016 
	C673.208435,505.683685 671.204773,508.239197 665.125061,507.755005 
	C661.202881,507.442657 658.554443,505.368164 655.207825,504.582642 
	C654.177307,504.340759 653.600159,501.692963 653.025391,500.072388 
	C651.333191,495.301544 650.318970,490.178650 647.917969,485.809937 
	C646.304138,482.873535 642.809204,480.956787 640.112122,478.634705 
	C638.128418,476.926819 637.034302,475.288483 637.798523,472.262939 
	C638.531799,469.359619 632.062012,462.611359 628.489624,462.042694 
	C625.062439,461.497162 623.301086,459.661041 621.454041,456.657196 
	C619.884521,454.104614 616.233643,452.760742 613.382568,451.088623 
	C610.897644,449.631165 607.565125,449.062714 605.788208,447.055725 
	C599.900085,440.405304 592.341125,440.228638 584.231323,440.747070 
	C583.298157,440.423248 582.178223,439.882568 582.057617,439.172211 
	C580.920471,432.475098 579.877075,425.759460 578.964783,419.027710 
	C578.352905,414.513062 577.996521,409.963776 577.265137,405.126770 
z"/>
<path fill="#30ADB7" opacity="1.000000" stroke="none" 
	d="
M657.437561,511.448578 
	C658.109253,510.607208 658.670166,510.072510 659.231018,509.537811 
	C659.414124,510.085541 659.597290,510.633301 659.780396,511.181061 
	C658.962524,511.372467 658.144592,511.563843 657.437561,511.448578 
z"/>
<path fill="#3DB7B8" opacity="1.000000" stroke="none" 
	d="
M626.001343,424.572571 
	C622.354553,425.175323 618.626648,425.584015 616.714539,421.316986 
	C616.536743,420.920074 615.950867,420.428284 615.570251,420.441315 
	C609.102173,420.663239 607.779541,414.842590 604.482971,411.250183 
	C600.873840,407.317139 597.534607,402.786530 591.202576,402.864166 
	C590.144775,402.877136 588.885376,401.468201 588.040161,400.449890 
	C586.604187,398.719818 585.423462,396.777893 583.974182,394.692963 
	C581.979492,395.923248 580.351929,396.927155 578.373962,397.970581 
	C578.015381,391.312195 578.007141,384.614227 578.006226,377.444702 
	C579.331909,376.360504 580.650269,375.747864 580.741760,375.705353 
	C584.218201,376.368866 586.794678,376.839874 589.361755,377.357452 
	C591.237488,377.735596 593.470093,377.654358 594.908447,378.673920 
	C602.741760,384.226257 610.960510,388.438232 620.784973,389.313354 
	C622.891479,389.500977 624.734314,392.210297 626.783813,393.635498 
	C628.098877,394.550049 629.490845,395.695343 630.984314,395.954926 
	C638.904419,397.331543 639.868347,398.206909 640.999207,406.594482 
	C640.999817,417.084534 640.512817,417.819702 630.583862,417.908356 
	C625.661316,417.952332 625.881287,420.865967 626.001343,424.572571 
z"/>
<path fill="#34B5BC" opacity="1.000000" stroke="none" 
	d="
M734.068115,476.161041 
	C734.011292,475.534821 734.170715,475.309967 734.944214,475.020874 
	C735.978943,474.204956 736.462402,473.497803 736.945862,472.790649 
	C743.033569,466.535583 749.121277,460.280518 755.948181,454.006653 
	C757.789307,454.269623 758.891174,454.551422 761.163452,455.132568 
	C757.843323,457.613525 755.596985,459.292053 753.912964,460.550476 
	C760.052124,462.570435 766.139954,464.707611 772.329834,466.490326 
	C773.486145,466.823303 775.051758,465.735046 776.428467,465.302704 
	C776.291870,464.966919 776.155273,464.631134 776.018677,464.295349 
	C774.519897,464.009247 773.021057,463.723114 771.522278,463.437012 
	C771.585022,462.952026 771.647766,462.467041 771.710510,461.982056 
	C775.290527,462.438660 779.257446,462.066650 782.371643,463.520874 
	C789.290649,466.751770 796.522522,467.174103 803.847900,468.305725 
	C811.275940,469.453247 819.433716,468.785889 826.054199,474.096802 
	C827.301025,475.097046 831.815613,474.492523 832.460266,473.324615 
	C834.633606,469.387634 837.517029,469.486603 840.883179,470.488312 
	C844.832214,471.663605 848.713867,473.065582 851.916138,474.133026 
	C851.567078,477.348389 851.310120,479.714752 851.053223,482.081116 
	C850.584534,482.974213 850.115845,483.867310 848.987305,484.897461 
	C847.238708,486.371735 846.149841,487.708923 845.060974,489.046112 
	C845.060974,489.046112 845.046997,489.016449 844.812866,489.124390 
	C844.295654,489.428040 844.117554,489.694031 844.044434,490.030334 
	C844.044434,490.030334 844.013245,490.043701 843.695923,490.074066 
	C842.941040,490.773865 842.503418,491.443268 842.065796,492.112671 
	C841.727905,493.169922 841.390015,494.227203 840.987183,495.612305 
	C838.300537,498.686707 835.678894,501.433228 832.942139,504.500732 
	C832.441772,504.891205 832.056519,504.960663 831.067505,505.042938 
	C829.991821,505.385559 829.519836,505.715363 829.047852,506.045166 
	C829.047852,506.045197 829.000000,506.000000 828.763184,506.173828 
	C828.350220,506.905212 828.174072,507.462708 827.997986,508.020233 
	C826.987915,509.389221 825.977783,510.758209 824.885254,512.464783 
	C823.772156,513.124573 822.741577,513.446777 821.417603,513.911194 
	C820.290161,511.518860 819.456177,508.984314 818.622131,506.449768 
	C816.284973,507.687958 814.033691,509.141754 811.590942,510.114929 
	C807.730774,511.652802 807.471008,508.610413 808.198792,506.460571 
	C809.976685,501.208221 807.162354,500.791504 803.260010,500.987823 
	C801.768982,501.062775 800.270569,501.023193 798.776245,500.995453 
	C794.881104,500.923157 790.810791,500.472382 790.072815,505.736664 
	C784.090149,504.211456 778.018433,504.115356 776.097961,496.995117 
	C775.739563,495.666260 773.380615,494.405334 771.724182,493.986786 
	C766.774109,492.736115 761.895752,491.910217 757.136658,489.419922 
	C754.389954,487.982635 750.708130,488.198914 748.435181,485.126343 
	C747.903015,484.407013 746.351624,484.085266 745.308655,484.156708 
	C737.014099,484.724640 736.820374,484.632721 734.068115,476.161041 
z"/>
<path fill="#30A7B1" opacity="1.000000" stroke="none" 
	d="
M773.911255,546.832397 
	C773.999023,547.000000 773.501892,546.999207 773.253418,546.998108 
	C773.277771,546.886292 773.550659,546.775574 773.911255,546.832397 
z"/>
<path fill="#82DDD8" opacity="1.000000" stroke="none" 
	d="
M588.265869,509.000244 
	C591.199707,517.028687 593.865906,524.914734 596.474243,532.819946 
	C596.827087,533.889343 596.890442,535.054199 597.043945,536.587402 
	C597.000061,536.999939 596.995361,537.006165 596.995361,537.006165 
	C587.626038,524.279846 578.410828,511.435852 568.821472,498.877502 
	C564.123901,492.725555 558.731445,487.104248 553.352295,481.097778 
	C553.051025,480.952759 553.043640,480.983917 552.990234,480.637695 
	C550.294617,477.512695 547.652466,474.733948 545.010254,471.955170 
	C543.234619,470.059326 541.459045,468.163513 539.211060,465.869995 
	C538.166687,465.271484 537.594604,465.070618 537.022522,464.869781 
	C535.332642,462.729248 533.897034,460.309113 531.906738,458.498840 
	C525.000488,452.217163 517.901489,446.147247 510.432800,439.598724 
	C500.304810,431.618256 490.669403,423.970886 480.893921,416.506958 
	C478.880249,414.969421 476.343964,414.116394 474.048553,412.947845 
	C474.048553,412.947845 474.022461,412.952545 473.936401,412.727783 
	C473.575226,412.322784 473.300140,412.142548 473.025055,411.962280 
	C473.025055,411.962280 473.037109,411.994751 472.985352,411.638092 
	C470.964630,410.171997 468.995728,409.062561 467.026794,407.953125 
	C467.026794,407.953125 466.992554,407.983459 466.911011,407.766724 
	C466.625336,407.282532 466.358734,407.113983 466.029602,407.044373 
	C458.931152,402.382965 451.832733,397.721558 444.385712,393.015442 
	C435.512970,387.978455 427.176697,382.622406 418.412140,378.095551 
	C409.517578,373.501587 400.224487,369.670929 391.045959,365.642609 
	C389.361938,364.903534 387.391266,364.817719 385.552887,364.430359 
	C385.612854,363.894836 385.672852,363.359283 385.732849,362.823730 
	C390.770905,363.368622 395.897888,363.490814 400.832336,364.528564 
	C428.302887,370.305634 455.010803,378.451477 480.618256,390.992737 
	C492.065948,398.062927 503.354828,404.793732 514.169800,412.215149 
	C520.934937,416.857574 526.986206,422.540192 533.663696,427.898346 
	C535.783386,429.945251 537.597229,431.849854 539.702148,433.915009 
	C541.126343,435.306488 542.259338,436.537476 543.675049,437.913666 
	C549.166443,444.680328 555.010803,450.904877 559.446716,458.008820 
	C567.764038,471.328552 575.263977,485.158508 583.117859,498.768219 
	C583.354675,499.178680 583.746887,499.499420 584.476685,500.249451 
	C585.240967,501.102570 585.595154,501.568207 585.949402,502.033813 
	C585.949402,502.033813 585.968445,502.057159 585.930298,502.402527 
	C586.207458,503.560364 586.522644,504.372864 586.837830,505.185364 
	C587.218506,506.411560 587.599182,507.637726 588.265869,509.000244 
z"/>
<path fill="#49C2C0" opacity="1.000000" stroke="none" 
	d="
M474.025055,413.345703 
	C476.343964,414.116394 478.880249,414.969421 480.893921,416.506958 
	C490.669403,423.970886 500.304810,431.618256 510.099518,439.534760 
	C508.477997,439.424225 506.758881,438.701447 505.011627,438.625549 
	C503.682373,438.567810 501.336945,439.046082 501.124207,439.775879 
	C499.479706,445.416565 495.080658,444.154755 491.300659,443.804413 
	C487.734436,443.473846 484.085815,442.866852 480.731476,441.662720 
	C474.082764,439.276031 467.634491,436.335999 461.048035,433.766541 
	C459.742615,433.257355 458.184052,433.417542 456.750214,433.213135 
	C452.470642,432.603058 448.187866,432.009857 443.921082,431.319000 
	C441.858978,430.985138 439.824677,430.469940 437.786957,429.997253 
	C433.493073,429.001129 428.993683,428.495789 424.964294,426.846710 
	C418.875000,424.354614 413.013123,421.239655 407.262299,418.018616 
	C404.756012,416.614838 402.764526,414.291992 400.266815,412.191650 
	C399.289368,410.640259 398.584320,409.283722 397.879242,407.927185 
	C398.169037,407.592743 398.458832,407.258301 398.748627,406.923859 
	C400.686554,407.854340 402.574677,408.912598 404.571991,409.690613 
	C409.893372,411.763489 415.125488,414.387512 420.653442,415.508514 
	C425.275177,416.445709 430.288574,415.845398 435.086243,415.433289 
	C443.448822,414.715027 451.779968,413.903381 460.042114,416.055420 
	C460.905853,416.280426 461.656067,417.058228 462.384033,417.668854 
	C467.871033,422.271271 472.198212,420.816437 474.025055,413.345703 
z"/>
<path fill="#3DB7B8" opacity="1.000000" stroke="none" 
	d="
M545.038208,472.312683 
	C547.652466,474.733948 550.294617,477.512695 552.996948,480.627411 
	C550.393433,478.198944 547.729797,475.434570 545.038208,472.312683 
z"/>
<path fill="#3DB7B8" opacity="1.000000" stroke="none" 
	d="
M537.174255,465.150940 
	C537.594604,465.070618 538.166687,465.271484 538.923523,465.719727 
	C538.514160,465.788757 537.920105,465.610443 537.174255,465.150940 
z"/>
<path fill="#49C2C0" opacity="1.000000" stroke="none" 
	d="
M800.986084,415.931335 
	C801.430725,415.605896 801.875427,415.280426 802.808594,415.184631 
	C804.524963,414.245758 805.752869,413.077240 806.980774,411.908752 
	C814.782410,406.711456 822.584045,401.514130 830.696777,396.177979 
	C831.020874,403.870239 835.078491,407.692749 842.851013,408.077820 
	C849.574219,408.410919 856.252441,409.576630 862.972839,410.072632 
	C866.107300,410.303925 869.340759,409.411316 872.446594,409.761688 
	C876.838684,410.257141 881.137634,411.530334 885.511230,412.262665 
	C887.046021,412.519623 888.683838,412.161255 890.660339,412.048798 
	C890.436768,414.534821 890.266052,417.275208 889.135742,419.535828 
	C885.768799,426.269562 882.024902,432.814850 877.875366,439.678864 
	C875.815369,438.741913 874.308228,437.559845 872.801086,436.377808 
	C872.787292,436.840668 872.773560,437.303528 872.759766,437.766388 
	C868.237976,437.843445 863.657593,438.412109 859.208191,437.881897 
	C852.587769,437.093018 846.089172,435.329163 839.483582,434.354065 
	C833.946899,433.536743 831.782837,426.253845 825.157166,427.450409 
	C822.323059,427.962280 819.233276,427.351868 816.304749,426.934723 
	C814.600586,426.691956 811.976501,426.250336 811.512268,425.156891 
	C809.839661,421.217621 806.768921,421.202972 803.371582,420.857056 
	C802.160828,420.733734 801.114197,418.998016 800.243652,417.825867 
	C800.658447,417.079407 800.822266,416.505371 800.986084,415.931335 
z"/>
<path fill="#49C2C0" opacity="1.000000" stroke="none" 
	d="
M892.970825,407.707916 
	C892.706848,408.479340 892.389343,408.938019 892.060669,409.690796 
	C891.875549,408.859955 891.701660,407.734955 891.527771,406.609955 
	C891.990967,406.871674 892.454163,407.133423 892.970825,407.707916 
z"/>
<path fill="#49C2C0" opacity="1.000000" stroke="none" 
	d="
M467.054077,408.314056 
	C468.995728,409.062561 470.964630,410.171997 472.990479,411.619873 
	C471.058716,410.863861 469.070038,409.769409 467.054077,408.314056 
z"/>
<path fill="#49C2C0" opacity="1.000000" stroke="none" 
	d="
M466.136719,407.258484 
	C466.358734,407.113983 466.625336,407.282532 466.933777,407.767670 
	C466.713776,407.906677 466.449005,407.735779 466.136719,407.258484 
z"/>
<path fill="#49C2C0" opacity="1.000000" stroke="none" 
	d="
M473.124756,412.191223 
	C473.300140,412.142548 473.575226,412.322784 473.943359,412.736389 
	C473.695618,412.890198 473.424957,412.707031 473.124756,412.191223 
z"/>
<path fill="#34B5BC" opacity="1.000000" stroke="none" 
	d="
M587.110596,504.979828 
	C586.522644,504.372864 586.207458,503.560364 585.918335,502.411621 
	C586.528687,501.966736 587.112915,501.858124 587.697205,501.749512 
	C587.592590,502.757782 587.487976,503.766052 587.110596,504.979828 
z"/>
<path fill="#34B5BC" opacity="1.000000" stroke="none" 
	d="
M585.943115,501.708679 
	C585.595154,501.568207 585.240967,501.102570 584.803833,500.336182 
	C585.126221,500.484833 585.531494,500.934174 585.943115,501.708679 
z"/>
<path fill="#30ADB7" opacity="1.000000" stroke="none" 
	d="
M619.744812,570.687134 
	C619.527954,570.810425 619.313049,570.644531 619.096558,570.188416 
	C619.304260,570.074646 619.521545,570.241211 619.744812,570.687134 
z"/>
<path fill="#30A7B1" opacity="1.000000" stroke="none" 
	d="
M725.727539,452.945068 
	C725.276855,454.173523 724.456726,455.470459 723.333740,456.907745 
	C723.806580,455.703247 724.582275,454.358368 725.727539,452.945068 
z"/>
<path fill="#30A7B1" opacity="1.000000" stroke="none" 
	d="
M728.687195,449.047302 
	C728.239258,450.023865 727.424744,451.013489 726.328857,452.213623 
	C726.805115,451.302856 727.562927,450.181580 728.687195,449.047302 
z"/>
<path fill="#30A7B1" opacity="1.000000" stroke="none" 
	d="
M722.698975,457.056824 
	C722.564819,457.931000 722.072205,458.834076 721.300415,459.892578 
	C721.460999,459.060608 721.900757,458.073181 722.698975,457.056824 
z"/>
<path fill="#30A7B1" opacity="1.000000" stroke="none" 
	d="
M732.720947,444.043091 
	C732.594299,444.671173 732.135010,445.329041 731.354126,446.019531 
	C731.484436,445.392426 731.936401,444.732635 732.720947,444.043091 
z"/>
<path fill="#30A7B1" opacity="1.000000" stroke="none" 
	d="
M734.716675,442.040649 
	C734.549561,442.610474 734.048096,443.203461 733.279663,443.923340 
	C733.469238,443.388092 733.925781,442.725952 734.716675,442.040649 
z"/>
<path fill="#30A7B1" opacity="1.000000" stroke="none" 
	d="
M730.784180,446.165771 
	C730.878601,446.576630 730.707031,447.141144 730.281677,447.873383 
	C730.191345,447.467255 730.354797,446.893341 730.784180,446.165771 
z"/>
<path fill="#30A7B1" opacity="1.000000" stroke="none" 
	d="
M735.899780,441.096619 
	C735.931641,441.273407 735.705505,441.543762 735.241150,441.931274 
	C735.215881,441.762299 735.428772,441.476257 735.899780,441.096619 
z"/>
<path fill="#30A7B1" opacity="1.000000" stroke="none" 
	d="
M729.803589,448.104431 
	C729.868591,448.303528 729.691162,448.591675 729.266113,448.962158 
	C729.199402,448.760834 729.380310,448.477142 729.803589,448.104431 
z"/>
<path fill="#3DB7B8" opacity="1.000000" stroke="none" 
	d="
M851.348938,481.916168 
	C851.310120,479.714752 851.567078,477.348389 851.916138,474.133026 
	C848.713867,473.065582 844.832214,471.663605 840.883179,470.488312 
	C837.517029,469.486603 834.633606,469.387634 832.460266,473.324615 
	C831.815613,474.492523 827.301025,475.097046 826.054199,474.096802 
	C819.433716,468.785889 811.275940,469.453247 803.847900,468.305725 
	C796.522522,467.174103 789.290649,466.751770 782.371643,463.520874 
	C779.257446,462.066650 775.290527,462.438660 771.710510,461.982056 
	C771.647766,462.467041 771.585022,462.952026 771.522278,463.437012 
	C773.021057,463.723114 774.519897,464.009247 776.018677,464.295349 
	C776.155273,464.631134 776.291870,464.966919 776.428467,465.302704 
	C775.051758,465.735046 773.486145,466.823303 772.329834,466.490326 
	C766.139954,464.707611 760.052124,462.570435 753.912964,460.550476 
	C755.596985,459.292053 757.843323,457.613525 761.163452,455.132568 
	C758.891174,454.551422 757.789307,454.269623 756.291870,453.969299 
	C756.198120,453.469269 756.499817,452.987793 757.213928,452.226868 
	C758.067810,451.608521 758.509277,451.269562 758.950684,450.930603 
	C758.950684,450.930603 758.931763,450.976379 759.282776,450.942627 
	C761.067078,449.219849 762.500366,447.530792 763.933655,445.841736 
	C770.383728,440.247314 776.833862,434.652893 783.597900,429.391418 
	C782.406311,435.100311 783.168457,436.270721 788.400696,437.041595 
	C789.846436,437.254608 791.279297,437.767029 792.635498,438.338104 
	C797.497192,440.385376 802.565308,442.103394 807.085876,444.748413 
	C810.633362,446.824066 813.736511,448.881958 818.014771,447.254425 
	C818.458740,447.085571 819.308960,448.160126 820.035767,448.529724 
	C823.328796,450.204498 826.537964,452.119965 829.979919,453.406921 
	C834.401428,455.060028 840.705811,452.007721 843.073792,458.763428 
	C843.103516,458.848358 843.377563,458.876068 843.539429,458.882080 
	C848.126526,459.052551 852.719238,459.427765 857.299377,459.310974 
	C860.577393,459.227386 863.838562,458.483246 867.107239,458.033844 
	C867.107239,458.033844 867.081482,458.518188 866.825867,458.871674 
	C866.398376,459.511047 866.226501,459.796936 866.054688,460.082825 
	C865.787476,460.557007 865.520325,461.031189 864.841431,461.789490 
	C864.100891,462.481201 863.772034,462.888763 863.443176,463.296326 
	C863.971130,463.518707 864.499084,463.741119 865.027039,463.963531 
	C864.671082,464.714081 864.315125,465.464600 863.850952,466.506134 
	C859.710022,471.781860 855.677307,476.766541 851.348938,481.916168 
z"/>
<path fill="#3EBEC1" opacity="1.000000" stroke="none" 
	d="
M867.405640,457.869415 
	C863.838562,458.483246 860.577393,459.227386 857.299377,459.310974 
	C852.719238,459.427765 848.126526,459.052551 843.539429,458.882080 
	C843.377563,458.876068 843.103516,458.848358 843.073792,458.763428 
	C840.705811,452.007721 834.401428,455.060028 829.979919,453.406921 
	C826.537964,452.119965 823.328796,450.204498 820.035767,448.529724 
	C819.308960,448.160126 818.458740,447.085571 818.014771,447.254425 
	C813.736511,448.881958 810.633362,446.824066 807.085876,444.748413 
	C802.565308,442.103394 797.497192,440.385376 792.635498,438.338104 
	C791.279297,437.767029 789.846436,437.254608 788.400696,437.041595 
	C783.168457,436.270721 782.406311,435.100311 783.940247,429.338806 
	C783.968567,428.953278 783.981445,428.986267 784.358154,428.989746 
	C790.484558,427.671112 793.891357,423.495117 796.984558,418.937134 
	C797.485779,418.379547 797.987000,417.821960 798.866943,417.378540 
	C799.441162,417.740265 799.690186,417.908813 799.992676,417.998322 
	C801.114197,418.998016 802.160828,420.733734 803.371582,420.857056 
	C806.768921,421.202972 809.839661,421.217621 811.512268,425.156891 
	C811.976501,426.250336 814.600586,426.691956 816.304749,426.934723 
	C819.233276,427.351868 822.323059,427.962280 825.157166,427.450409 
	C831.782837,426.253845 833.946899,433.536743 839.483582,434.354065 
	C846.089172,435.329163 852.587769,437.093018 859.208191,437.881897 
	C863.657593,438.412109 868.237976,437.843445 872.759766,437.766388 
	C872.773560,437.303528 872.787292,436.840668 872.801086,436.377808 
	C874.308228,437.559845 875.815369,438.741913 877.672241,439.953735 
	C876.837219,442.941406 875.987183,446.097931 874.380493,448.805511 
	C872.498962,451.976135 869.958557,454.755768 867.405640,457.869415 
z"/>
<path fill="#3EBEC1" opacity="1.000000" stroke="none" 
	d="
M865.030273,463.637634 
	C864.499084,463.741119 863.971130,463.518707 863.443176,463.296326 
	C863.772034,462.888763 864.100891,462.481201 864.734619,462.040344 
	C865.037476,462.441925 865.035461,462.876831 865.030273,463.637634 
z"/>
<path fill="#3EBEC1" opacity="1.000000" stroke="none" 
	d="
M866.269592,459.954346 
	C866.226501,459.796936 866.398376,459.511047 866.799805,459.112793 
	C866.847778,459.275574 866.666138,459.550720 866.269592,459.954346 
z"/>
<path fill="#3DB7B8" opacity="1.000000" stroke="none" 
	d="
M845.383545,489.002991 
	C846.149841,487.708923 847.238708,486.371735 848.716064,485.057831 
	C847.971802,486.374054 846.838989,487.666962 845.383545,489.002991 
z"/>
<path fill="#3DB7B8" opacity="1.000000" stroke="none" 
	d="
M842.381958,492.049652 
	C842.503418,491.443268 842.941040,490.773865 843.712280,490.081177 
	C843.596619,490.700806 843.147400,491.343689 842.381958,492.049652 
z"/>
<path fill="#3DB7B8" opacity="1.000000" stroke="none" 
	d="
M844.263062,489.926941 
	C844.117554,489.694031 844.295654,489.428040 844.804810,489.138092 
	C844.935852,489.365784 844.752808,489.625671 844.263062,489.926941 
z"/>
<path fill="#3DB7B8" opacity="1.000000" stroke="none" 
	d="
M829.347534,506.030060 
	C829.519836,505.715363 829.991821,505.385559 830.773193,505.057068 
	C830.604065,505.377228 830.125610,505.696075 829.347534,506.030060 
z"/>
<path fill="#3DB7B8" opacity="1.000000" stroke="none" 
	d="
M828.255859,507.867493 
	C828.174072,507.462708 828.350220,506.905212 828.785522,506.197632 
	C828.867737,506.603302 828.690735,507.159058 828.255859,507.867493 
z"/>
<path fill="#82DDD8" opacity="1.000000" stroke="none" 
	d="
M597.003906,536.996460 
	C597.146423,537.150085 597.285034,537.307068 597.423706,537.464111 
	C597.321838,537.415039 597.219971,537.365967 597.056763,537.161499 
	C596.995361,537.006165 597.000061,536.999939 597.003906,536.996460 
z"/>
<path fill="#82DDD8" opacity="1.000000" stroke="none" 
	d="
M598.540710,539.455017 
	C598.573425,539.514771 598.507996,539.395264 598.540710,539.455017 
z"/>
<path fill="#3DB7B8" opacity="1.000000" stroke="none" 
	d="
M796.640991,418.996582 
	C793.891357,423.495117 790.484558,427.671112 784.348755,428.984009 
	C788.074219,425.668549 792.185852,422.362274 796.640991,418.996582 
z"/>
<path fill="#34B5BC" opacity="1.000000" stroke="none" 
	d="
M763.597900,445.917084 
	C762.500366,447.530792 761.067078,449.219849 759.281250,450.915924 
	C760.373169,449.279449 761.817688,447.635956 763.597900,445.917084 
z"/>
<path fill="#3DB7B8" opacity="1.000000" stroke="none" 
	d="
M806.641602,411.969086 
	C805.752869,413.077240 804.524963,414.245758 803.097046,415.156921 
	C804.032166,413.942841 805.167297,412.986145 806.641602,411.969086 
z"/>
<path fill="#30A7B1" opacity="1.000000" stroke="none" 
	d="
M736.636475,472.894104 
	C736.462402,473.497803 735.978943,474.204956 735.130493,474.924713 
	C735.286133,474.290741 735.806641,473.644165 736.636475,472.894104 
z"/>
<path fill="#3DB7B8" opacity="1.000000" stroke="none" 
	d="
M800.243652,417.825867 
	C799.690186,417.908813 799.441162,417.740265 799.140320,417.291718 
	C799.489014,416.741394 799.943054,416.392059 800.691650,415.987030 
	C800.822266,416.505371 800.658447,417.079407 800.243652,417.825867 
z"/>
<path fill="#34B5BC" opacity="1.000000" stroke="none" 
	d="
M758.650757,450.930084 
	C758.509277,451.269562 758.067810,451.608521 757.331787,451.968140 
	C757.475159,451.635712 757.912964,451.282623 758.650757,450.930084 
z"/>
</svg>